<?xml version="1.0" encoding="utf-8"?>
<!-- Generator: Adobe Illustrator 21.1.0, SVG Export Plug-In . SVG Version: 6.00 Build 0)  -->
<svg version="1.1" id="Layer_1" xmlns="http://www.w3.org/2000/svg" xmlns:xlink="http://www.w3.org/1999/xlink" x="0px" y="0px"
	 viewBox="0 0 595.3 595.3" style="enable-background:new 0 0 595.3 595.3;" xml:space="preserve">
<style type="text/css">
	.st0{fill:#FFFFFF;}
</style>
<g>
	<g>
		<path d="M595.3,574c0,11.7-9.6,21.3-21.3,21.3H21.3C9.6,595.3,0,585.7,0,574V21.3C0,9.6,9.6,0,21.3,0H574
			c11.7,0,21.3,9.6,21.3,21.3V574z"/>
	</g>
	<g>
		<path class="st0" d="M288.9,435.4h-31.2v-31.6c-6.9,10.2-16.3,18.8-28.2,25.9c-11.9,7.1-25.1,10.7-39.6,10.7
			c-14.2,0-27.3-2.7-39.2-8c-11.9-5.3-22.3-12.7-31-22.1c-8.8-9.4-15.6-20.3-20.6-32.8c-5-12.4-7.4-25.8-7.4-40
			c0-14.2,2.5-27.6,7.4-40.2c5-12.6,11.8-23.5,20.6-32.8c8.8-9.3,19.1-16.6,31-22.1c11.9-5.5,25-8.2,39.2-8.2
			c14.2,0,27.1,3.4,38.7,10.1c11.6,6.7,20.9,14.9,28,24.6v-117h32.4V435.4z M256.5,337.8c0-10.2-1.8-19.7-5.3-28.6
			c-3.6-8.9-8.4-16.7-14.5-23.4c-6.1-6.7-13.1-12-21.1-15.8c-8-3.8-16.6-5.7-25.7-5.7c-9.1,0-17.8,1.9-25.9,5.7
			c-8.1,3.8-15.1,9.1-21,15.8c-5.8,6.7-10.5,14.5-13.9,23.4c-3.4,8.9-5.1,18.4-5.1,28.6c0,9.9,1.7,19.3,5.1,28.2
			c3.4,8.9,8.1,16.6,13.9,23.2c5.8,6.6,12.8,11.8,21,15.6c8.1,3.8,16.8,5.7,25.9,5.7c9.1,0,17.7-1.9,25.7-5.7c8-3.8,15-9,21.1-15.6
			c6.1-6.6,10.9-14.3,14.5-23.2C254.7,357.1,256.5,347.7,256.5,337.8z"/>
		<path class="st0" d="M495.3,357.6c0,11.4-2.2,22.2-6.5,32.2c-4.3,10-10.6,18.7-18.9,26.1c-8.3,7.4-18.2,13.2-29.9,17.5
			c-11.7,4.3-24.8,6.5-39.2,6.5c-15.2,0-28.6-2.2-40-6.5c-11.4-4.3-21-10.2-28.6-17.5c-7.6-7.4-13.5-16-17.7-25.9
			c-4.2-9.9-6.7-20.6-7.4-32h33.5c0.8,7.4,2.3,14.2,4.8,20.6c2.4,6.4,6,11.8,10.7,16.4c4.7,4.6,10.7,8.2,18.1,10.9
			c7.4,2.7,16.3,4,26.7,4c9.4,0,17.9-1.3,25.5-4c7.6-2.7,14.2-6.3,19.6-11c5.5-4.7,9.6-10.2,12.6-16.6c2.9-6.3,4.4-13.2,4.4-20.6
			c0-6.1-0.9-12.1-2.7-17.9c-1.8-5.8-5.1-11-9.9-15.6c-4.8-4.6-11.5-8.2-20-11c-8.5-2.8-19.4-4.2-32.6-4.2h-12.2v-29.7
			c24.6,0,42.1-3.7,52.4-11c10.3-7.4,15.4-17.8,15.4-31.2c0-13-4.3-23.3-12.8-31c-8.5-7.7-21.1-11.6-37.9-11.6
			c-9.7,0-17.9,1.5-24.8,4.4c-6.9,2.9-12.4,6.9-16.8,11.8c-4.3,5-7.5,10.5-9.5,16.8c-2,6.2-3,12.8-3,19.6h-33.5
			c0-11.9,2.2-23,6.5-33.1c4.3-10.2,10.3-18.9,17.9-26.1c7.6-7.2,16.8-12.9,27.6-17c10.8-4.1,22.7-6.1,35.6-6.1
			c13.2,0,25,1.8,35.4,5.5c10.4,3.7,19.1,8.8,26.1,15.2c7,6.5,12.3,14.2,16,23c3.7,8.9,5.5,18.4,5.5,28.6c0,12.4-2.8,23.3-8.4,32.6
			c-5.6,9.3-13.7,16.4-24.4,21.5c13.7,5.1,24.2,13.3,31.4,24.6C491.7,326.8,495.3,340.9,495.3,357.6z"/>
	</g>
</g>
</svg>
