<svg height="336" viewBox="0 0 336 336" width="336" xmlns="http://www.w3.org/2000/svg"><g fill="#d1d1d1"><path d="m201 298.17h37.1v-37.17h-37.1zm10-27.17h17.1v17.14h-17.1z"/><path d="m102 298.17h37.14v-37.17h-37.14zm10-27.17h17.14v17.14h-17.14z"/><path d="m238.1 211h-37.1v37.14h37.1zm-10 27.14h-17.1v-17.14h17.1z"/><path d="m222.4 174.1-10 10h45.6v119.68a12 12 0 0 1 -12 12h-164.4v-131.68h80.4v-10h-139v-41.1h139v-60h-135a24.07 24.07 0 0 0 -24 24v212a24.07 24.07 0 0 0 24 24h227a24.07 24.07 0 0 0 24-24v-134.9zm-123.4-80.6a10 10 0 1 1 -10 10 10 10 0 0 1 10-10zm-33 0a10 10 0 1 1 -10 10 10 10 0 0 1 10-10zm-33 0a10 10 0 1 1 -10 10 10 10 0 0 1 10-10zm38.6 222.28h-36.6a12 12 0 0 1 -12-12v-119.68h48.6z"/><path d="m151.48 298.17h37.14v-37.17h-37.14zm10-27.14h17.14v17.14h-17.14z"/><path d="m139.14 211h-37.14v37.14h37.14zm-10 27.14h-17.14v-17.14h17.14z"/><path d="m188.62 211h-37.14v37.14h37.14zm-10 27.14h-17.14v-17.14h17.14z"/><path d="m327 3h-148a6 6 0 0 0 -6 6v191.59c0 3.3 1.91 4.09 4.24 1.75l35.1-35.1a16.75 16.75 0 0 1 10.25-4.24h104.41a6 6 0 0 0 6-6v-148a6 6 0 0 0 -6-6zm-79 130h-45v-100h45zm55 0h-45v-60h45z"/></g></svg>