<svg id="Layer_1" data-name="Layer 1" xmlns="http://www.w3.org/2000/svg" width="336" height="336" viewBox="0 0 336 336"><path d="M201,298.17H238.1V261H201ZM211,271H228.1v17.14H211Z" fill="#d1d1d1"/><path d="M102,298.17h37.14V261H102ZM112,271h17.14v17.14H112Z" fill="#d1d1d1"/><path d="M238.1,211H201v37.14H238.1Zm-10,27.14H211V221H228.1Z" fill="#d1d1d1"/><path d="M222.4,174.1l-10,10H258V303.78a12,12,0,0,1-12,12H81.6V184.1H162v-10H23V133H162V73H27A24.07,24.07,0,0,0,3,97V309a24.07,24.07,0,0,0,24,24H254a24.07,24.07,0,0,0,24-24V174.1ZM99,93.5a10,10,0,1,1-10,10A10,10,0,0,1,99,93.5Zm-33,0a10,10,0,1,1-10,10A10,10,0,0,1,66,93.5Zm-33,0a10,10,0,1,1-10,10A10,10,0,0,1,33,93.5ZM71.6,315.78H35a12,12,0,0,1-12-12V184.1H71.6Z" fill="#d1d1d1"/><path d="M151.48,298.17h37.14V261H151.48Zm10-27.14h17.14v17.14H161.48Z" fill="#d1d1d1"/><path d="M139.14,211H102v37.14h37.14Zm-10,27.14H112V221h17.14Z" fill="#d1d1d1"/><path d="M188.62,211H151.48v37.14h37.14Zm-10,27.14H161.48V221h17.14Z" fill="#d1d1d1"/><path d="M327,3H179a6,6,0,0,0-6,6V200.59c0,3.3,1.91,4.09,4.24,1.75l35.1-35.1A16.75,16.75,0,0,1,222.59,163H327a6,6,0,0,0,6-6V9A6,6,0,0,0,327,3ZM248,133H203V33h45Zm55,0H258V73h45Z" fill="#d1d1d1"/></svg>