<svg height="35" viewBox="0 0 104 35" width="104" xmlns="http://www.w3.org/2000/svg" xmlns:xlink="http://www.w3.org/1999/xlink"><mask id="a" fill="#fff"><path d="m0 34.1727093h103.780639v-33.37990244h-103.780639z" fill="#fff" fill-rule="evenodd"/></mask><g fill="#fff" fill-rule="evenodd"><path d="m57.622205 14.2060224v7.5812156h-7.9878991v-7.5812156h-4.9474286v20.0277706h4.9474286v-8.3723138h7.9878991v8.3723138h4.9483026v-20.0277706z"/><path d="m73.0481143 14.2060224-8.5944202 20.0277706h5.3817815l1.5058152-3.9307159h7.9284705l1.5923362 3.9307159h5.4980168l-8.5087731-20.0277706zm2.3159664 5.3471747 2.5449411 6.8729862h-5.1501848z"/><g transform="translate(0 .061255)"><path d="m95.360921 18.048829h-2.1708907v4.7243771h2.0826218c1.8527731 0 3.5604706-.5373659 3.5604706-2.4330969 0-1.9239236-1.7076975-2.2912802-3.4722017-2.2912802zm.2884034 8.5713698h-2.4592941v7.5521688h-4.9483026v-20.0277706h7.522958c4.4859833 0 8.0158653 1.583905 8.0158653 6.1673197 0 4.6389453-3.8488737 6.3082821-8.1312266 6.3082821z"/><path d="m0 34.1727093h15.3666555v-33.37990244h-15.3666555z" mask="url(#a)"/><path d="m18.7803025 34.1727093h15.3666555v-20.0277706h-15.3666555z" mask="url(#a)"/></g></g></svg>