<?xml version="1.0" standalone="no"?><!DOCTYPE svg PUBLIC "-//W3C//DTD SVG 1.1//EN" "http://www.w3.org/Graphics/SVG/1.1/DTD/svg11.dtd"><svg width="100%" height="100%" viewBox="0 0 148 97" version="1.1" xmlns="http://www.w3.org/2000/svg" xmlns:xlink="http://www.w3.org/1999/xlink" xml:space="preserve" style="fill-rule:evenodd;clip-rule:evenodd;stroke-linejoin:round;stroke-miterlimit:1.41421;"><clipPath id="_clip1"><rect id="Artboard1" x="0" y="0" width="147.592" height="96.135"/></clipPath><g clip-path="url(#_clip1)"><g><path id="Fill-1" d="M1.437,15.201l27.932,-13.784l27.931,13.784l-27.931,13.784l-27.932,-13.784Z" style="fill:#535456;"/><g id="Group-19"><g id="Group-4"><path id="Fill-2" d="M4.648,15.201l24.721,12.199l24.719,-12.199l-24.719,-12.199l-24.721,12.199ZM29.369,30.402c-0.22,0 -0.441,-0.05 -0.643,-0.149l-27.931,-13.784c-0.487,-0.24 -0.794,-0.731 -0.794,-1.268c0,-0.537 0.307,-1.028 0.794,-1.268l27.931,-13.783c0.404,-0.2 0.881,-0.2 1.285,0l27.931,13.783c0.487,0.24 0.794,0.731 0.794,1.268c0,0.537 -0.307,1.028 -0.794,1.268l-27.931,13.784c-0.202,0.099 -0.422,0.149 -0.642,0.149Z" style="fill:#fefefe;"/></g><path id="Fill-5" d="M54.507,83.188l-25.138,11.529l-25.14,-11.529" style="fill:#535456;"/><path id="Fill-7" d="M29.369,96.135c-0.207,0 -0.414,-0.045 -0.605,-0.133l-25.139,-11.529c-0.72,-0.33 -1.031,-1.173 -0.697,-1.882c0.335,-0.711 1.191,-1.017 1.907,-0.688l24.534,11.252l24.533,-11.252c0.717,-0.329 1.573,-0.023 1.907,0.688c0.334,0.709 0.023,1.552 -0.697,1.882l-25.138,11.529c-0.192,0.088 -0.398,0.133 -0.605,0.133" style="fill:#fefefe;"/><path id="Fill-9" d="M4.23,83.188c-1.218,-18.99 22.445,-33.474 25.139,-54.203l27.931,-13.784c-2.692,31.594 -27.931,51.687 -27.931,79.516l-25.139,-11.529Z" style="fill:#535456;"/><g id="Group-13"><path id="Fill-11" d="M5.627,82.265l22.356,10.254c0.615,-13.476 6.789,-25.041 13.306,-37.248c6.161,-11.541 12.521,-23.454 14.311,-37.647l-24.914,12.296c-1.521,9.865 -7.488,18.24 -13.262,26.345c-6.173,8.666 -12.016,16.866 -11.797,26M29.369,96.135c-0.206,0 -0.413,-0.044 -0.605,-0.132l-25.139,-11.53c-0.478,-0.219 -0.795,-0.677 -0.828,-1.196c-0.671,-10.465 5.618,-19.295 12.278,-28.642c5.721,-8.028 11.635,-16.331 12.869,-25.83c0.062,-0.469 0.355,-0.877 0.783,-1.088l27.931,-13.783c0.464,-0.228 1.018,-0.193 1.448,0.093c0.429,0.288 0.669,0.782 0.626,1.294c-1.356,15.898 -8.243,28.797 -14.902,41.271c-6.698,12.547 -13.025,24.398 -13.025,38.126c0,0.483 -0.251,0.934 -0.664,1.194c-0.235,0.148 -0.503,0.223 -0.772,0.223" style="fill:#fefefe;"/></g><path id="Fill-14" d="M54.507,83.188c1.218,-18.99 -22.446,-33.474 -25.138,-54.203l-27.932,-13.784c2.693,31.594 27.932,51.687 27.932,79.516l25.138,-11.529Z" style="fill:#535456;"/><g id="Group-18"><path id="Fill-16" d="M54.507,83.188l0.009,0l-0.009,0ZM3.136,17.624c1.79,14.192 8.151,26.105 14.313,37.647c6.517,12.207 12.69,23.772 13.306,37.248l22.355,-10.254c0.218,-9.135 -5.623,-17.333 -11.796,-25.998c-5.775,-8.107 -11.742,-16.481 -13.263,-26.348l-24.915,-12.295ZM29.369,96.134c-0.269,0 -0.537,-0.074 -0.772,-0.222c-0.414,-0.26 -0.664,-0.71 -0.664,-1.195c0,-13.728 -6.327,-25.578 -13.025,-38.124c-6.66,-12.475 -13.548,-25.375 -14.903,-41.273c-0.043,-0.511 0.196,-1.004 0.626,-1.292c0.432,-0.288 0.985,-0.323 1.447,-0.095l27.933,13.784c0.428,0.211 0.721,0.619 0.783,1.087c1.233,9.499 7.148,17.802 12.869,25.832c6.659,9.347 12.949,18.176 12.277,28.642c-0.034,0.518 -0.351,0.977 -0.828,1.195l-25.138,11.529c-0.193,0.089 -0.4,0.132 -0.605,0.132Z" style="fill:#fefefe;"/></g></g></g><path id="ISF" d="M71.388,85.595c-0.401,0 -0.747,-0.144 -1.039,-0.432c-0.292,-0.287 -0.438,-0.629 -0.438,-1.025l0,-34.848c0,-0.396 0.146,-0.737 0.438,-1.025c0.292,-0.288 0.638,-0.432 1.039,-0.432l4.431,0c0.401,0 0.748,0.144 1.04,0.432c0.291,0.288 0.437,0.629 0.437,1.025l0,34.848c0,0.396 -0.146,0.738 -0.437,1.025c-0.292,0.288 -0.639,0.432 -1.04,0.432l-4.431,0ZM98.96,47.294c2.443,0 4.595,0.324 6.455,0.971c1.86,0.647 3.41,1.456 4.65,2.427c1.24,0.972 2.179,2.041 2.817,3.21c0.638,1.169 0.994,2.275 1.067,3.318c0.036,0.431 -0.101,0.782 -0.411,1.052c-0.31,0.27 -0.665,0.404 -1.066,0.404l-3.83,0c-0.62,0 -1.085,-0.117 -1.395,-0.35c-0.31,-0.234 -0.592,-0.549 -0.848,-0.944c-0.547,-0.899 -1.376,-1.682 -2.489,-2.347c-1.112,-0.665 -2.762,-0.998 -4.95,-0.998c-0.949,0 -1.851,0.099 -2.708,0.297c-0.857,0.198 -1.605,0.485 -2.243,0.863c-0.639,0.378 -1.14,0.836 -1.505,1.376c-0.364,0.539 -0.547,1.15 -0.547,1.834c0,0.827 0.174,1.501 0.52,2.023c0.346,0.521 0.93,0.971 1.751,1.348c0.82,0.378 1.905,0.728 3.254,1.052c1.35,0.324 3.027,0.701 5.033,1.133c2.189,0.468 4.076,1.016 5.662,1.645c1.587,0.63 2.881,1.385 3.884,2.266c1.003,0.881 1.751,1.897 2.243,3.048c0.493,1.151 0.739,2.463 0.739,3.938c0,1.618 -0.365,3.12 -1.094,4.504c-0.73,1.385 -1.769,2.572 -3.119,3.561c-1.349,0.989 -3.008,1.771 -4.978,2.346c-1.969,0.576 -4.175,0.863 -6.619,0.863c-2.042,0 -3.993,-0.242 -5.853,-0.728c-1.86,-0.485 -3.511,-1.187 -4.951,-2.104c-1.441,-0.917 -2.599,-2.023 -3.474,-3.317c-0.875,-1.295 -1.368,-2.734 -1.477,-4.316c-0.036,-0.431 0.1,-0.782 0.41,-1.052c0.31,-0.27 0.666,-0.404 1.067,-0.404l3.829,0c0.62,0 1.094,0.107 1.423,0.323c0.328,0.216 0.601,0.54 0.82,0.971c0.256,0.468 0.566,0.935 0.93,1.403c0.365,0.467 0.857,0.881 1.477,1.241c0.62,0.359 1.395,0.656 2.325,0.89c0.93,0.233 2.088,0.35 3.474,0.35c1.094,0 2.152,-0.081 3.173,-0.242c1.021,-0.162 1.915,-0.432 2.68,-0.81c0.766,-0.377 1.386,-0.845 1.86,-1.402c0.475,-0.558 0.712,-1.25 0.712,-2.077c0,-0.791 -0.256,-1.439 -0.766,-1.942c-0.511,-0.504 -1.286,-0.935 -2.325,-1.295c-1.04,-0.359 -2.325,-0.701 -3.857,-1.025c-1.532,-0.323 -3.3,-0.737 -5.306,-1.24c-1.824,-0.432 -3.419,-0.945 -4.787,-1.538c-1.368,-0.593 -2.498,-1.322 -3.392,-2.185c-0.893,-0.863 -1.559,-1.879 -1.996,-3.048c-0.438,-1.168 -0.657,-2.562 -0.657,-4.18c0,-1.619 0.365,-3.111 1.094,-4.478c0.73,-1.366 1.733,-2.535 3.009,-3.506c1.276,-0.971 2.799,-1.735 4.568,-2.293c1.769,-0.557 3.674,-0.836 5.717,-0.836ZM146.115,47.833c0.401,0 0.748,0.144 1.04,0.432c0.291,0.288 0.437,0.629 0.437,1.025l0,3.83c0,0.396 -0.146,0.737 -0.437,1.025c-0.292,0.288 -0.639,0.432 -1.04,0.432l-17.451,0l0,10.465l16.357,0c0.401,0 0.748,0.144 1.039,0.431c0.292,0.288 0.438,0.63 0.438,1.025l0,3.831c0,0.395 -0.146,0.737 -0.438,1.024c-0.291,0.288 -0.638,0.432 -1.039,0.432l-16.357,0l0,12.353c0,0.396 -0.146,0.738 -0.437,1.025c-0.292,0.288 -0.639,0.432 -1.04,0.432l-4.431,0c-0.401,0 -0.747,-0.144 -1.039,-0.432c-0.292,-0.287 -0.438,-0.629 -0.438,-1.025l0,-34.848c0,-0.396 0.146,-0.737 0.438,-1.025c0.292,-0.288 0.638,-0.432 1.039,-0.432l23.359,0Z" style="fill:#fff;"/></g></svg>