<?xml version="1.0" encoding="UTF-8"?>
<svg width="119px" height="39px" viewBox="0 0 119 39" version="1.1" xmlns="http://www.w3.org/2000/svg" xmlns:xlink="http://www.w3.org/1999/xlink">
    <!-- Generator: Sketch 49.3 (51167) - http://www.bohemiancoding.com/sketch -->
    <title>Page 1 Copy 3</title>
    <desc>Created with Sketch.</desc>
    <defs></defs>
    <g id="Page-1" stroke="none" stroke-width="1" fill="none" fill-rule="evenodd">
        <g id="Benchmarks" transform="translate(-124.000000, -595.000000)" fill="#9B9B9B">
            <path d="M145.535605,634 L163.154916,634 L163.154916,610.6002 L145.535605,610.6002 L145.535605,634 Z M124,634 L141.619311,634 L141.619311,595 L124,595 L124,634 Z M233.346557,615.16078 L230.856284,615.16078 L230.856284,620.68059 L233.245343,620.68059 C235.36884,620.68059 237.326987,620.052749 237.326987,617.838836 C237.326987,615.590986 235.36884,615.16078 233.346557,615.16078 Z M233.677258,625.17629 L230.856284,625.17629 L230.856284,634 L225.182268,634 L225.182268,610.6002 L233.81054,610.6002 C238.952429,610.6002 243,612.450783 243,617.805897 C243,623.224893 238.587656,625.17629 233.677258,625.17629 Z M210.415999,616.847666 L207.428672,624.877841 L213.33518,624.877841 L210.415999,616.847666 Z M216.720349,634 L214.895485,629.40648 L205.804232,629.40648 L204.078578,634 L197.905506,634 L207.760375,610.6002 L213.26904,610.6002 L223.024699,634 L216.720349,634 Z M190.072919,634 L190.072919,624.218059 L180.914525,624.218059 L180.914525,634 L175.240509,634 L175.240509,610.6002 L180.914525,610.6002 L180.914525,619.457847 L190.072919,619.457847 L190.072919,610.6002 L195.746935,610.6002 L195.746935,634 L190.072919,634 Z" id="Page-1-Copy-3"></path>
        </g>
    </g>
</svg>