<?xml version="1.0" standalone="no"?><!DOCTYPE svg PUBLIC "-//W3C//DTD SVG 1.1//EN" "http://www.w3.org/Graphics/SVG/1.1/DTD/svg11.dtd"><svg xmlns:xlink="http://www.w3.org/1999/xlink" version="1.1" class="highcharts-root" style="font-family:&quot;Lucida Grande&quot;, &quot;Lucida Sans Unicode&quot;, Arial, Helvetica, sans-serif;font-size:12px;" xmlns="http://www.w3.org/2000/svg" width="400" height="250" viewBox="0 0 400 250"><desc>Created with Highcharts 6.0.3</desc><defs><clipPath id="highcharts-cbvia4b-6"><rect x="0" y="0" width="166" height="299" fill="none"></rect></clipPath></defs><rect fill="#ffffff" class="highcharts-background" x="0" y="0" width="400" height="250" rx="0" ry="0"></rect><rect fill="none" class="highcharts-plot-background" x="91" y="10" width="299" height="166"></rect><g class="highcharts-grid highcharts-xaxis-grid "><path fill="none" class="highcharts-grid-line" d="M 91 34.5 L 390 34.5" opacity="1"></path><path fill="none" class="highcharts-grid-line" d="M 91 57.5 L 390 57.5" opacity="1"></path><path fill="none" class="highcharts-grid-line" d="M 91 81.5 L 390 81.5" opacity="1"></path><path fill="none" class="highcharts-grid-line" d="M 91 105.5 L 390 105.5" opacity="1"></path><path fill="none" class="highcharts-grid-line" d="M 91 129.5 L 390 129.5" opacity="1"></path><path fill="none" class="highcharts-grid-line" d="M 91 152.5 L 390 152.5" opacity="1"></path><path fill="none" class="highcharts-grid-line" d="M 91 176.5 L 390 176.5" opacity="1"></path><path fill="none" class="highcharts-grid-line" d="M 91 10.5 L 390 10.5" opacity="1"></path></g><g class="highcharts-grid highcharts-yaxis-grid "><path fill="none" stroke="#e6e6e6" stroke-width="1" class="highcharts-grid-line" d="M 90.5 10 L 90.5 176" opacity="1"></path><path fill="none" stroke="#e6e6e6" stroke-width="1" class="highcharts-grid-line" d="M 140.5 10 L 140.5 176" opacity="1"></path><path fill="none" stroke="#e6e6e6" stroke-width="1" class="highcharts-grid-line" d="M 190.5 10 L 190.5 176" opacity="1"></path><path fill="none" stroke="#e6e6e6" stroke-width="1" class="highcharts-grid-line" d="M 240.5 10 L 240.5 176" opacity="1"></path><path fill="none" stroke="#e6e6e6" stroke-width="1" class="highcharts-grid-line" d="M 289.5 10 L 289.5 176" opacity="1"></path><path fill="none" stroke="#e6e6e6" stroke-width="1" class="highcharts-grid-line" d="M 339.5 10 L 339.5 176" opacity="1"></path><path fill="none" stroke="#e6e6e6" stroke-width="1" class="highcharts-grid-line" d="M 390.5 10 L 390.5 176" opacity="1"></path></g><rect fill="none" class="highcharts-plot-border" x="91" y="10" width="299" height="166"></rect><g class="highcharts-axis highcharts-xaxis "><path fill="none" class="highcharts-tick" stroke="#ccd6eb" stroke-width="1" d="M 91 34.5 L 81 34.5" opacity="1"></path><path fill="none" class="highcharts-tick" stroke="#ccd6eb" stroke-width="1" d="M 91 57.5 L 81 57.5" opacity="1"></path><path fill="none" class="highcharts-tick" stroke="#ccd6eb" stroke-width="1" d="M 91 81.5 L 81 81.5" opacity="1"></path><path fill="none" class="highcharts-tick" stroke="#ccd6eb" stroke-width="1" d="M 91 105.5 L 81 105.5" opacity="1"></path><path fill="none" class="highcharts-tick" stroke="#ccd6eb" stroke-width="1" d="M 91 129.5 L 81 129.5" opacity="1"></path><path fill="none" class="highcharts-tick" stroke="#ccd6eb" stroke-width="1" d="M 91 152.5 L 81 152.5" opacity="1"></path><path fill="none" class="highcharts-tick" stroke="#ccd6eb" stroke-width="1" d="M 91 176.5 L 81 176.5" opacity="1"></path><path fill="none" class="highcharts-tick" stroke="#ccd6eb" stroke-width="1" d="M 91 9.5 L 81 9.5" opacity="1"></path><path fill="none" class="highcharts-axis-line" stroke="#ccd6eb" stroke-width="1" d="M 90.5 10 L 90.5 176"></path></g><g class="highcharts-axis highcharts-yaxis "><text x="240.5" text-anchor="middle" transform="translate(0,0)" class="highcharts-axis-title" style="color:#666666;fill:#666666;" y="216"><tspan>Max number of layers at 30fps</tspan><tspan style="font-style:italic; font-size:80%;" x="240.5" dy="15">2.7 GHz Intel Core i7 w/ AMD Radeon Pro 460</tspan></text><path fill="none" class="highcharts-axis-line" d="M 91 176 L 390 176"></path></g><g class="highcharts-series-group"><g class="highcharts-series highcharts-series-0 highcharts-bar-series highcharts-color-0 " transform="translate(390,176) rotate(90) scale(-1,1) scale(1 1)" clip-path="url(#highcharts-cbvia4b-6)"><rect x="147.5" y="20.5" width="12" height="279" fill="#7cb5ec" stroke="#ffffff" stroke-width="1" class="highcharts-point highcharts-color-0"></rect><rect x="124.5" y="179.5" width="12" height="120" fill="#7cb5ec" stroke="#ffffff" stroke-width="1" class="highcharts-point highcharts-color-0"></rect><rect x="100.5" y="279.5" width="12" height="20" fill="#7cb5ec" stroke="#ffffff" stroke-width="1" class="highcharts-point highcharts-color-0"></rect><rect x="76.5" y="239.5" width="12" height="60" fill="#7cb5ec" stroke="#ffffff" stroke-width="1" class="highcharts-point highcharts-color-0"></rect><rect x="53.5" y="159.5" width="12" height="140" fill="#7cb5ec" stroke="#ffffff" stroke-width="1" class="highcharts-point highcharts-color-0"></rect><rect x="29.5" y="219.5" width="12" height="80" fill="#7cb5ec" stroke="#ffffff" stroke-width="1" class="highcharts-point highcharts-color-0"></rect><rect x="5.5" y="259.5" width="12" height="40" fill="#7cb5ec" stroke="#ffffff" stroke-width="1" class="highcharts-point highcharts-color-0"></rect></g><g class="highcharts-markers highcharts-series-0 highcharts-bar-series highcharts-color-0 " transform="translate(390,176) rotate(90) scale(-1,1) scale(1 1)" clip-path="none"></g></g><text x="200" text-anchor="middle" class="highcharts-title" style="color:#333333;font-size:18px;fill:#333333;" y="24"></text><text x="200" text-anchor="middle" class="highcharts-subtitle" style="color:#666666;fill:#666666;" y="24"></text><g class="highcharts-axis-labels highcharts-xaxis-labels "><text x="76" style="color:#666666;cursor:default;font-size:11px;fill:#666666;" text-anchor="end" transform="translate(0,0)" y="25" opacity="1"><tspan>HAP</tspan></text><text x="76" style="color:#666666;cursor:default;font-size:11px;fill:#666666;" text-anchor="end" transform="translate(0,0)" y="49" opacity="1"><tspan>HAP Q</tspan></text><text x="76" style="color:#666666;cursor:default;font-size:11px;fill:#666666;" text-anchor="end" transform="translate(0,0)" y="73" opacity="1"><tspan>H.264</tspan></text><text x="76" style="color:#666666;cursor:default;font-size:11px;fill:#666666;" text-anchor="end" transform="translate(0,0)" y="97" opacity="1"><tspan>ProRes 422</tspan></text><text x="76" style="color:#666666;cursor:default;font-size:11px;fill:#666666;" text-anchor="end" transform="translate(0,0)" y="120" opacity="1"><tspan>HAP Alpha</tspan></text><text x="76" style="color:#666666;cursor:default;font-size:11px;fill:#666666;" text-anchor="end" transform="translate(0,0)" y="144" opacity="1"><tspan>HAP Q Alpha</tspan></text><text x="76" style="color:#666666;cursor:default;font-size:11px;fill:#666666;" text-anchor="end" transform="translate(0,0)" y="168" opacity="1"><tspan>ProRes 4444</tspan></text></g><g class="highcharts-axis-labels highcharts-yaxis-labels "><text x="91" style="color:#666666;cursor:default;font-size:11px;fill:#666666;" text-anchor="middle" transform="translate(0,0)" y="195" opacity="1">0</text><text x="140.83333333333334" style="color:#666666;cursor:default;font-size:11px;fill:#666666;" text-anchor="middle" transform="translate(0,0)" y="195" opacity="1">2.5</text><text x="190.66666666666669" style="color:#666666;cursor:default;font-size:11px;fill:#666666;" text-anchor="middle" transform="translate(0,0)" y="195" opacity="1">5</text><text x="240.5" style="color:#666666;cursor:default;font-size:11px;fill:#666666;" text-anchor="middle" transform="translate(0,0)" y="195" opacity="1">7.5</text><text x="290.33333333333337" style="color:#666666;cursor:default;font-size:11px;fill:#666666;" text-anchor="middle" transform="translate(0,0)" y="195" opacity="1">10</text><text x="340.16666666666663" style="color:#666666;cursor:default;font-size:11px;fill:#666666;" text-anchor="middle" transform="translate(0,0)" y="195" opacity="1">12.5</text><text x="383.625" style="color:#666666;cursor:default;font-size:11px;fill:#666666;" text-anchor="middle" transform="translate(0,0)" y="195" opacity="1">15</text></g></svg>