<svg id="icons_R2" data-name="icons R2" xmlns="http://www.w3.org/2000/svg" viewBox="0 0 150 150"><defs><style>.cls-1{fill:#fff;}.cls-2{fill:#02ff3f;}.cls-3{fill:#117428;}.cls-4{fill:#4d4d4d;}</style></defs><title>isf_icon_standard</title><polygon class="cls-1" points="93.94 64.52 75 73.99 56.06 64.52 55.26 66.14 75 76.01 94.74 66.14 93.94 64.52 93.94 64.52"/><polyline class="cls-1" points="75.9 94.34 75.9 75 74.1 75 74.1 94.34"/><polygon class="cls-1" points="55.66 84.67 55.26 85.48 75 95.35 95.24 85.23 95.24 64.77 75 54.65 54.76 64.77 54.76 85.23 55.26 85.48 55.66 84.67 56.56 84.67 56.56 65.89 75 56.67 93.44 65.89 93.44 84.11 75 93.33 56.06 83.86 55.66 84.67 56.56 84.67 55.66 84.67"/><polygon class="cls-2" points="41.06 93.69 41.97 93.69 41.97 56.87 75 40.35 108.03 56.87 108.03 93.13 75 109.65 41.47 92.88 41.06 93.69 41.97 93.69 41.06 93.69 40.66 94.5 75 111.67 109.84 94.25 109.84 55.75 75 38.33 40.16 55.75 40.16 94.25 40.66 94.5 41.06 93.69"/><polygon class="cls-3" points="26.47 102.71 27.37 102.71 27.37 47.85 75 24.03 122.63 47.85 122.63 102.15 75 125.97 26.87 101.9 26.47 102.71 27.37 102.71 26.47 102.71 26.07 103.52 75 127.98 124.43 103.27 124.43 46.73 75 22.02 25.57 46.73 25.57 103.27 26.07 103.52 26.47 102.71"/><polygon class="cls-4" points="11.87 111.73 12.78 111.73 12.78 38.83 75 7.72 137.22 38.83 137.22 111.17 75 142.28 12.28 110.92 11.87 111.73 12.78 111.73 11.87 111.73 11.47 112.54 75 144.3 139.03 112.29 139.03 37.71 75 5.7 10.97 37.71 10.97 112.29 11.47 112.54 11.87 111.73"/></svg>