<svg id="icons_R2" data-name="icons R2" xmlns="http://www.w3.org/2000/svg" viewBox="0 0 150 150"><defs><style>.cls-1{fill:#4d4d4d;}.cls-2{fill:#117428;}.cls-3{fill:#02ff3f;}.cls-4{fill:#fff;}</style></defs><title>isf_icon_remix</title><rect class="cls-1" x="85.12" y="14.76" width="1.81" height="22.03"/><rect class="cls-1" x="52.06" y="73.7" width="1.81" height="24.63" transform="translate(-47.65 94.91) rotate(-63.43)"/><polygon class="cls-1" points="130.98 80.51 129.18 80.51 129.18 59.04 107.65 48.28 108.45 46.66 130.98 57.93 130.98 80.51"/><polygon class="cls-1" points="108.08 26.46 85.65 15.24 86.45 13.63 108.08 24.44 129.7 13.63 130.51 15.24 108.08 26.46"/><rect class="cls-1" x="107.18" y="25.45" width="1.81" height="22.03"/><polygon class="cls-1" points="20.82 113.54 19.02 113.54 19.02 90.96 63.1 68.94 63.1 47.47 64.91 47.47 64.91 70.06 20.82 92.08 20.82 113.54"/><polygon class="cls-1" points="108.43 114.35 107.62 112.74 129.15 101.97 129.15 81.06 108.03 70.5 86.4 81.31 85.59 79.7 108.03 68.48 130.96 79.94 130.96 103.09 108.43 114.35"/><rect class="cls-1" x="106.73" y="85.11" width="24.63" height="1.81" transform="translate(-25.9 62.32) rotate(-26.57)"/><polygon class="cls-1" points="41.05 101.97 41.07 57.93 63.1 46.91 63.13 24.89 108.08 2.42 131.01 13.88 131.01 37.02 108.08 48.49 85.65 37.27 86.45 35.66 108.08 46.47 129.2 35.91 129.2 14.99 108.08 4.43 64.93 26.01 64.9 48.03 42.88 59.04 42.85 101.97 41.05 101.97"/><path class="cls-2" d="M86,81.52,63.1,70.05V46.91L86,35.45,109,46.91V70.05ZM64.9,68.94,86,79.5l21.12-10.56V48L86,37.47,64.9,48Z"/><polygon class="cls-2" points="86.03 59.49 63.59 48.28 64.4 46.66 86.03 57.48 107.65 46.66 108.46 48.28 86.03 59.49"/><rect class="cls-2" x="85.12" y="58.48" width="1.81" height="22.03"/><polygon class="cls-3" points="107.62 114.35 85.09 103.09 85.09 80.5 86.9 80.5 86.9 101.97 108.43 112.74 107.62 114.35"/><polygon class="cls-3" points="64.38 114.35 63.57 112.74 85.1 101.97 85.1 80.5 86.9 80.5 86.9 103.09 64.38 114.35"/><path class="cls-3" d="M86,125.56,63.07,114.1V91L86,79.49,108.93,91V114.1ZM64.88,113,86,123.54,107.12,113V92.08L86,81.51,64.88,92.08Z"/><polygon class="cls-4" points="41.92 125.59 19.49 114.37 20.3 112.76 41.92 123.57 63.55 112.76 64.35 114.37 41.92 125.59"/><rect class="cls-4" x="41.02" y="124.58" width="1.81" height="22.03"/><path class="cls-4" d="M41.92,147.61,19,136.15V113l22.93-11.47L64.85,113v23.14ZM20.8,135l21.12,10.56L63.05,135V114.12L41.92,103.56,20.8,114.12Z"/></svg>