<svg id="icons_R2" data-name="icons R2" xmlns="http://www.w3.org/2000/svg" viewBox="0 0 150 150"><defs><style>.cls-1{fill:#117428;}.cls-2{fill:#02ff3f;}.cls-3{fill:#fff;}</style></defs><title>isf_icon_modules</title><path class="cls-1" d="M92.2,41,57.9,58.18v2L92.2,43.05l47.93,24L92.2,91,49.79,69.77l-2,1L91.3,92.54v47.93L43.16,116.4V73.08L41.35,74v43.52l.5.25L92.2,142.94l50.85-25.43V66.46Zm49.05,75.37L93.11,140.47V92.54l48.14-24.07Z"/><path class="cls-2" d="M32.87,27.17,7,40.14V66.27l.5.25L32.87,79.23l25.93-13V40.14Zm23,13.52-23,11.51-23-11.51,23-11.5ZM8.75,42.15,32,53.76v23L8.75,65.16Zm25,34.62v-23L57,42.15v23Z"/><path class="cls-3" d="M76,7.06,62.53,13.63l-.14,13.63.49.25L75.73,34.1l13.48-6.57.14-13.63Zm10.42,7.37L75.88,19.57,65.44,14.22,76,9.08ZM64.31,15.67,75,21.13l-.1,10.49L64.2,26.16Zm12.35,16,.11-10.49L87.53,15.9l-.11,10.49Z"/></svg>