<?xml version="1.0" standalone="no"?><!DOCTYPE svg PUBLIC "-//W3C//DTD SVG 1.1//EN" "http://www.w3.org/Graphics/SVG/1.1/DTD/svg11.dtd"><svg xmlns:xlink="http://www.w3.org/1999/xlink" version="1.1" class="highcharts-root" style="font-family:&quot;Lucida Grande&quot;, &quot;Lucida Sans Unicode&quot;, Arial, Helvetica, sans-serif;font-size:12px;" xmlns="http://www.w3.org/2000/svg" width="400" height="250" viewBox="0 0 400 250"><desc>Created with Highcharts 6.0.3</desc><defs><clipPath id="highcharts-edpyvky-6"><rect x="0" y="0" width="181" height="299" fill="none"></rect></clipPath></defs><rect fill="#ffffff" class="highcharts-background" x="0" y="0" width="400" height="250" rx="0" ry="0"></rect><rect fill="none" class="highcharts-plot-background" x="91" y="10" width="299" height="181"></rect><g class="highcharts-pane-group"></g><g class="highcharts-grid highcharts-xaxis-grid "><path fill="none" class="highcharts-grid-line" d="M 91 36.5 L 390 36.5" opacity="1"></path><path fill="none" class="highcharts-grid-line" d="M 91 62.5 L 390 62.5" opacity="1"></path><path fill="none" class="highcharts-grid-line" d="M 91 88.5 L 390 88.5" opacity="1"></path><path fill="none" class="highcharts-grid-line" d="M 91 113.5 L 390 113.5" opacity="1"></path><path fill="none" class="highcharts-grid-line" d="M 91 139.5 L 390 139.5" opacity="1"></path><path fill="none" class="highcharts-grid-line" d="M 91 165.5 L 390 165.5" opacity="1"></path><path fill="none" class="highcharts-grid-line" d="M 91 191.5 L 390 191.5" opacity="1"></path><path fill="none" class="highcharts-grid-line" d="M 91 10.5 L 390 10.5" opacity="1"></path></g><g class="highcharts-grid highcharts-yaxis-grid "><path fill="none" stroke="#e6e6e6" stroke-width="1" class="highcharts-grid-line" d="M 90.5 10 L 90.5 191" opacity="1"></path><path fill="none" stroke="#e6e6e6" stroke-width="1" class="highcharts-grid-line" d="M 165.5 10 L 165.5 191" opacity="1"></path><path fill="none" stroke="#e6e6e6" stroke-width="1" class="highcharts-grid-line" d="M 240.5 10 L 240.5 191" opacity="1"></path><path fill="none" stroke="#e6e6e6" stroke-width="1" class="highcharts-grid-line" d="M 314.5 10 L 314.5 191" opacity="1"></path><path fill="none" stroke="#e6e6e6" stroke-width="1" class="highcharts-grid-line" d="M 390.5 10 L 390.5 191" opacity="1"></path></g><rect fill="none" class="highcharts-plot-border" x="91" y="10" width="299" height="181"></rect><g class="highcharts-axis highcharts-xaxis "><path fill="none" class="highcharts-tick" stroke="#ccd6eb" stroke-width="1" d="M 91 36.5 L 81 36.5" opacity="1"></path><path fill="none" class="highcharts-tick" stroke="#ccd6eb" stroke-width="1" d="M 91 62.5 L 81 62.5" opacity="1"></path><path fill="none" class="highcharts-tick" stroke="#ccd6eb" stroke-width="1" d="M 91 88.5 L 81 88.5" opacity="1"></path><path fill="none" class="highcharts-tick" stroke="#ccd6eb" stroke-width="1" d="M 91 113.5 L 81 113.5" opacity="1"></path><path fill="none" class="highcharts-tick" stroke="#ccd6eb" stroke-width="1" d="M 91 139.5 L 81 139.5" opacity="1"></path><path fill="none" class="highcharts-tick" stroke="#ccd6eb" stroke-width="1" d="M 91 165.5 L 81 165.5" opacity="1"></path><path fill="none" class="highcharts-tick" stroke="#ccd6eb" stroke-width="1" d="M 91 191.5 L 81 191.5" opacity="1"></path><path fill="none" class="highcharts-tick" stroke="#ccd6eb" stroke-width="1" d="M 91 9.5 L 81 9.5" opacity="1"></path><path fill="none" class="highcharts-axis-line" stroke="#ccd6eb" stroke-width="1" d="M 90.5 10 L 90.5 191"></path></g><g class="highcharts-axis highcharts-yaxis "><text x="240.5" text-anchor="middle" transform="translate(0,0)" class="highcharts-axis-title" style="color:#666666;fill:#666666;" y="231"><tspan>Data rate in Mbit/s</tspan></text><path fill="none" class="highcharts-axis-line" d="M 91 191 L 390 191"></path></g><g class="highcharts-series-group"><g class="highcharts-series highcharts-series-0 highcharts-columnrange-series highcharts-color-0 " transform="translate(390,191) rotate(90) scale(-1,1) scale(1 1)" clip-path="url(#highcharts-edpyvky-6)"><rect x="161.5" y="223.74917499999998" width="13" height="71.70169500000003" fill="#7cb5ec" stroke="#ffffff" stroke-width="1" class="highcharts-point highcharts-color-0"></rect><rect x="135.5" y="148.5080675" width="13" height="143.35853999999998" fill="#7cb5ec" stroke="#ffffff" stroke-width="1" class="highcharts-point highcharts-color-0"></rect><rect x="109.5" y="286.156455" width="13" height="12.82695050000001" fill="#7cb5ec" stroke="#ffffff" stroke-width="1" class="highcharts-point highcharts-color-0"></rect><rect x="83.5" y="249.2665825" width="13" height="48.1860925" fill="#7cb5ec" stroke="#ffffff" stroke-width="1" class="highcharts-point highcharts-color-0"></rect><rect x="57.5" y="148.5080675" width="13" height="143.38544999999996" fill="#7cb5ec" stroke="#ffffff" stroke-width="1" class="highcharts-point highcharts-color-0"></rect><rect x="32.5" y="73.26696000000001" width="13" height="215.057245" fill="#7cb5ec" stroke="#ffffff" stroke-width="1" class="highcharts-point highcharts-color-0"></rect><rect x="6.5" y="12.444380000000024" width="13" height="284.27350249999995" fill="#7cb5ec" stroke="#ffffff" stroke-width="1" class="highcharts-point highcharts-color-0"></rect></g><g class="highcharts-markers highcharts-series-0 highcharts-columnrange-series highcharts-color-0 " transform="translate(390,191) rotate(90) scale(-1,1) scale(1 1)" clip-path="none"></g></g><text x="200" text-anchor="middle" class="highcharts-title" style="color:#333333;font-size:18px;fill:#333333;" y="24"></text><text x="200" text-anchor="middle" class="highcharts-subtitle" style="color:#666666;fill:#666666;" y="24"></text><g class="highcharts-axis-labels highcharts-xaxis-labels "><text x="76" style="color:#666666;cursor:default;font-size:11px;fill:#666666;" text-anchor="end" transform="translate(0,0)" y="26" opacity="1"><tspan>Hap</tspan></text><text x="76" style="color:#666666;cursor:default;font-size:11px;fill:#666666;" text-anchor="end" transform="translate(0,0)" y="52" opacity="1"><tspan>HAP Q</tspan></text><text x="76" style="color:#666666;cursor:default;font-size:11px;fill:#666666;" text-anchor="end" transform="translate(0,0)" y="78" opacity="1"><tspan>H.264</tspan></text><text x="76" style="color:#666666;cursor:default;font-size:11px;fill:#666666;" text-anchor="end" transform="translate(0,0)" y="104" opacity="1"><tspan>ProRes 422</tspan></text><text x="76" style="color:#666666;cursor:default;font-size:11px;fill:#666666;" text-anchor="end" transform="translate(0,0)" y="130" opacity="1"><tspan>HAP Alpha</tspan></text><text x="76" style="color:#666666;cursor:default;font-size:11px;fill:#666666;" text-anchor="end" transform="translate(0,0)" y="156" opacity="1"><tspan>HAP Q Alpha</tspan></text><text x="76" style="color:#666666;cursor:default;font-size:11px;fill:#666666;" text-anchor="end" transform="translate(0,0)" y="182" opacity="1"><tspan>ProRes 4444</tspan></text></g><g class="highcharts-axis-labels highcharts-yaxis-labels "><text x="91" style="color:#666666;cursor:default;font-size:11px;fill:#666666;" text-anchor="middle" transform="translate(0,0)" y="210" opacity="1"><tspan>0</tspan></text><text x="165.75" style="color:#666666;cursor:default;font-size:11px;fill:#666666;" text-anchor="middle" transform="translate(0,0)" y="210" opacity="1"><tspan>1,000</tspan></text><text x="240.5" style="color:#666666;cursor:default;font-size:11px;fill:#666666;" text-anchor="middle" transform="translate(0,0)" y="210" opacity="1"><tspan>2,000</tspan></text><text x="315.25" style="color:#666666;cursor:default;font-size:11px;fill:#666666;" text-anchor="middle" transform="translate(0,0)" y="210" opacity="1"><tspan>3,000</tspan></text><text x="384.0078125" style="color:#666666;cursor:default;font-size:11px;fill:#666666;" text-anchor="middle" transform="translate(0,0)" y="210" opacity="1"><tspan>4,000</tspan></text></g></svg>