<svg height="28" viewBox="0 0 92 28" width="92" xmlns="http://www.w3.org/2000/svg" xmlns:xlink="http://www.w3.org/1999/xlink"><mask id="a" fill="#fff"><path d="m0 0h92v28h-92z" fill="#fff" fill-rule="evenodd"/></mask><path d="m62.2331827 13.9805064c2.6316579 0 4.0669826 2.0137263 4.0669826 4.5312878 0 2.2075091-1.6061967 4.1437223-4.0330376 4.1437223-2.289914 0-3.759413-1.8589308-3.759413-4.1822481 0-2.4790357 1.5380772-4.492762 3.725468-4.492762zm20.9489054-6.62229658h.0685782v8.71376668h-6.0839602zm8.8179119 8.71376668h-3.1100995v-15.41357636h-5.5708854l-10.6637881 14.83268936v6.1576792h10.4245673v6.0028836h5.8101062v-6.0028836h3.1100995zm-28.878283-10.92127577c.512616 0 1.1279845.07774382 1.6747748.42609147.5470197.42609147.9571125 1.00697849 1.1963333 2.09123941h5.4341878c-.7176623-4.91862276-4.0672119-7.35820982-8.3052959-7.35820982-7.2114859 0-10.4243379 6.42874445-10.4243379 14.01949361 0 6.9323491 2.4951897 13.6706846 9.5016292 13.6706846 5.1949671 0 9.5355742-3.5628352 9.5355742-9.9528231 0-4.9183921-3.3495496-8.90731878-7.7243312-8.90731878-2.2896846 0-4.3745522.65816945-5.5708854 2.86567858h-.0683488c.1022938-3.05946138 1.435554-6.85483597 4.7506999-6.85483597zm-11.6527813 16.92415937h-11.3128723c1.5722516-1.7041351 2.4610153-2.4010611 4.3066621-3.6403483 3.4860179-2.4785743 6.7669894-4.3377357 6.7669894-9.56571891 0-5.770575-4.2039096-8.5589711-8.9204351-8.5589711-5.9126294 0-9.7406206 4.53128785-9.3647023 11.23109751h5.4344173c0-2.94342233.8885343-5.4607532 3.9644594-5.4607532 1.8798212 0 3.0761544 1.23928716 3.0761544 3.36928312 0 1.82040488-1.2988564 3.13697448-3.1103288 4.49253128-1.8795919 1.3553261-4.1695058 2.710883-6.2204284 4.7246093-2.3582627 2.3237787-3.6910642 5.5380356-3.7252386 8.9850625h19.1053229zm-27.4097014 5.5767922h6.3571259v-7.2034142h-6.3571259zm-2.9713377-27.6516523h-6.3571259v10.0693235h-8.37364476v-10.0693235h-6.35712594v27.6516523h6.35712594v-11.3861237h8.37364476v11.3861237h6.3571259z" fill="#9b9b9b" fill-rule="evenodd" mask="url(#a)"/></svg>