<svg height="39" viewBox="0 0 119 39" width="119" xmlns="http://www.w3.org/2000/svg"><path d="m145.535605 634h17.619311v-23.3998h-17.619311zm-21.535605 0h17.619311v-39h-17.619311zm109.346557-18.83922h-2.490273v5.51981h2.389059c2.123497 0 4.081644-.627841 4.081644-2.841754 0-2.24785-1.958147-2.678056-3.98043-2.678056zm.330701 10.01551h-2.820974v8.82371h-5.674016v-23.3998h8.628272c5.141889 0 9.18946 1.850583 9.18946 7.205697 0 5.418996-4.412344 7.370393-9.322742 7.370393zm-23.261259-8.328624-2.987327 8.030175h5.906508zm6.30435 17.152334-1.824864-4.59352h-9.091253l-1.725654 4.59352h-6.173072l9.854869-23.3998h5.508665l9.755659 23.3998zm-26.64743 0v-9.781941h-9.158394v9.781941h-5.674016v-23.3998h5.674016v8.857647h9.158394v-8.857647h5.674016v23.3998z" fill="#9b9b9b" fill-rule="evenodd" transform="translate(-124 -595)"/></svg>