<svg enable-background="new 0 0 960.1 960.1" viewBox="0 0 960.1 960.1" xmlns="http://www.w3.org/2000/svg"><path d="m0 518.8h960v191h-960z" fill="#010101"/><g fill="#a2227b"><path d="m.1 518.8h116.5v191h-116.5z"/><path d="m120.6 518.8h116.5v191h-116.5z"/><path d="m241.1 518.8h116.5v191h-116.5z"/><path d="m361.6 518.8h116.5v191h-116.5z"/><path d="m482.1 518.8h116.5v191h-116.5z"/><path d="m602.6 518.8h116.5v191h-116.5z"/><path d="m723.1 518.8h116.5v191h-116.5z"/><path d="m843.6 518.8h116.5v191h-116.5z"/></g><path d="m116.6 709.8v-166c-33.2-3.6-70.4-5.9-116.5-7.2v173.2z" fill="#ef3c4a"/><path d="m237.1 709.8v-143.7c-39.5-10.3-75-17.2-116.5-21.9v165.5h116.5z" fill="#ef3c4a"/><path d="m357.6 709.8v-108c-45.9-14.4-82.8-25.7-116.5-34.6v142.5h116.5z" fill="#ef3c4a"/><path d="m478.1 709.8v-70.2c-15.2-4.8-31-9.8-47.5-14.9-25.3-7.9-48.1-15.1-69-21.6v106.7z" fill="#ef3c4a"/><path d="m598.6 709.8v-34.6c-35.2-8.9-73.3-20.7-116.5-34.3v68.9z" fill="#ef3c4a"/><path d="m719.1 709.8v-17.2c-36.8.1-74.5-6-116.5-16.4v33.6z" fill="#ef3c4a"/><path d="m839.6 709.8v-32.5c-36 5.6-56.2 11.1-96.6 14.3-6.6.5-13.2.8-19.8.9v17.2h116.4z" fill="#ef3c4a"/><path d="m960.1 709.8v-44c-4.7.1-9.5.3-14.5.6-47.3 3.1-78.1 6.7-102 10.3v33.1z" fill="#ef3c4a"/><g fill="#fff"><path d="m100.1 545.5-13.5 139.8h-5.8l-22.3-82.9h-.4l-22.3 82.9h-5.8l-13.5-139.8 13.5-2.7 6.4 103h.4l19.5-72.2h4l19.5 72.2h.4l6.4-103z"/><path d="m193.9 628h-30.1l14.9-64.1h.4zm3.2 12.3 10.4 45 13.3-3.7-33.9-136.1h-16.1l-33.9 136.1 13.2 3.7 10.4-45z"/><path d="m292.9 558h-28.9v-12.3h70.7v12.3h-28.3v124.8h-13.5z"/><path d="m457.4 662.1c-7.8 12.9-19.5 22.4-34.8 22.4-34.9 0-40.2-43.2-40.2-70.3 0-27.4 5.2-70.5 40.2-70.5 15.3 0 25.7 9.1 32.7 22.2l-11.4 7c-4.2-8.6-11-16.2-21.3-16.2-24.5 0-26.1 39.5-26.1 57.6 0 17.9 1.6 57.4 26.1 57.4 10.4 0 18.7-8.8 23.7-17.3z"/><path d="m506.2 545.5h13.5v57.6h41.4v-57.6h13.5v137.1h-13.5v-67.2h-41.4v67.2h-13.5z"/><path d="m660.8 556.6c23.7 0 23.1 31.5 23.1 57.4 0 23.9.2 57.6-23.1 57.6-18.9 0-23.1-20.6-23.1-57.6 0-20.2-.6-57.4 23.1-57.4zm0-12.8c-35.8 0-37.2 47.7-37.2 70.3 0 17.7-1 70.5 37.2 70.5 37.8 0 37.2-53.2 37.2-70.5 0-18.1.6-70.3-37.2-70.3z"/><path d="m762 545.5v99.7c0 13.6 2.6 26.3 19.3 26.3s19.5-13 19.5-26.3v-99.7h13.5v103.8c0 21.4-13.1 35.2-32.9 35.2-20.3 0-32.7-14.2-32.7-34.5v-104.5z"/><path d="m937.2 575.2h-1.6v-10.1h-.1l-3.9 10.1h-1.1l-3.8-10.1v10.1h-1.6v-11.7h2.8l3.3 8.3 3.4-8.3h2.7zm-13.5-10h-3.8v10.1h-1.6v-10.1h-3.9v-1.7h9.3z"/><path d="m895.4 558h-28.9v-12.3h70.7v12.3h-28.3v124.8h-13.5z"/></g><path d="m517.7 306.5c.1 0 .1 30.8 0 30.8 0 15.6 7.6 28.2 26.6 29.8v12.4c-24.7-.1-39-18-39-42.1v-30.9h-9.6v-11.9h9.6v-20.8h12.4v20.8h25.3v11.9z"/><path d="m430.1 307.5v-12.5c29.4-7.9 49.8 6.3 57.6 27.3l20.3 55.1h-13.3l-8.4-22.3c-8.3 16.3-25.2 26.2-42.5 25.6-9.1-.3-17.7-3.4-23.5-11.3-4.1-6-5.3-14.1-3.5-21.5 2.8-8.8 11.4-15.8 20.4-17.2 9-1.2 40.3-.5 40.2-.6-5-13.1-17.5-35-47.3-22.6zm-.4 53.5c5.5 8.2 14.9 9 23.5 7.1 12.6-3 24.6-14.2 28.6-27.2-12.2.6-30-.4-40.8 1-16.5 2.1-13.2 15.7-11.3 19.1z"/><path d="m649.5 306.5c.1 0 .1 30.8 0 30.8 0 15.6 7.6 28.2 26.6 29.8v12.4c-24.7-.1-39-18-39-42.1v-30.9h-9.6v-11.9h9.6v-20.8h12.4v20.8h25.3v11.9z"/><path d="m751.6 336c0 17.7-14.3 32-32 32s-32-14.3-32-32 14.3-32 32-32 32 14.2 32 32zm-32-44.5c-24.6 0-44.5 19.9-44.5 44.5s19.9 44.5 44.5 44.5 44.5-19.9 44.5-44.5-20-44.5-44.5-44.5z"/><path d="m562 307.5v-12.5c29.4-7.9 48.2 5.6 57 26.7l20.9 55.6h-13.3l-7.9-22.3c-8.3 16.3-25.8 26.2-43 25.6-9.1-.3-17.7-3.4-23.5-11.3-4.1-6-5.3-14.1-3.5-21.5 2.8-8.8 11.4-15.8 20.3-17.2 9-1.2 40.3-.5 40.2-.6-1.4-11-17.5-34.9-47.2-22.5zm-.4 53.5c5.5 8.2 14.9 9 23.5 7.1 12.6-3 24.6-14.2 28.7-27.2-12.2.6-30-.4-40.8 1-16.7 2.1-13.4 15.7-11.4 19.1z"/><path d="m398.9 250.4v54.8c-8.1-8.4-19.4-13.7-32-13.7-24.6 0-44.5 19.9-44.5 44.5s19.9 44.5 44.5 44.5c24.5 0 44.5-19.9 44.5-44.5v-85.6zm-32 117.6c-17.7 0-32-14.3-32-32s14.3-32 32-32 32 14.3 32 32c0 17.6-14.4 32-32 32z"/><path d="m196.3 259h-.3v55.6c-.2-.3-.4-.5-.4-.5-7-9.2-8.9-10.9-12.5-13.9-4.8-4.1-10.2-6.2-15.6-6.2-5.9 0-12.3 3.3-15.7 6.3l-.4.4c-2.7 2.4-5.3 4.7-12 13.5-3.1 4-11 16.7-11.9 18.2l-.1.2 10.6 6.6.1-.2c2.3-3.8 8.9-14.2 11.2-17.2 6-7.8 8-9.6 10.3-11.7l.4-.4c1.7-1.5 5.1-3.2 7.4-3.2 3 0 5.8 1.8 7.5 3.3 2.8 2.3 4.2 3.5 10.6 12 3.5 4.5 8.3 12.4 10.3 15.6v74.8h4.4c42.2 0 76.5-34.3 76.5-76.5s-34.3-76.5-76.5-76.5h-3.9zm12.2 13.1c26.2 3.3 47.9 22.8 54.1 48.6.6 2.5.9 5.4.9 8.3 0 2.3-.2 4.5-.6 6.6-1.1 6-4.9 13-6.5 15.3-9.9 14.5-16.1 14.1-18.8 14h-.7c-3 0-5.8-1.8-7.5-3.3-2.8-2.3-4.2-3.5-10.6-12-3.5-4.6-8.3-12.4-10.3-15.6 0-.2 0-61.4 0-61.9zm0 84.4c.2.3.4.5.4.5 7 9.2 8.9 10.9 12.5 13.9 4.8 4.1 10.2 6.2 15.6 6.2 5.9 0 12.3-3.3 15.7-6.3l.4-.4c.7-.7 1.5-1.4 2.4-2.2-10.1 16.9-27.4 28.3-46.9 30.8-.1-.5-.1-41-.1-42.5z"/><path d="m771.4 377.2v-55.2c0-16.9 13.7-30.6 30.6-30.6s30.6 13.7 30.6 30.6v55.2h-12.4v-55.2c0-10-8.2-18.2-18.2-18.2s-18.2 8.2-18.2 18.2v55.2z"/></svg>