<?xml version="1.0" encoding="utf-8"?>
<!-- Generator: Adobe Illustrator 21.1.0, SVG Export Plug-In . SVG Version: 6.00 Build 0)  -->
<svg version="1.1" id="Layer_1" xmlns="http://www.w3.org/2000/svg" xmlns:xlink="http://www.w3.org/1999/xlink" x="0px" y="0px"
	 viewBox="0 0 960.1 459.4" style="enable-background:new 0 0 960.1 459.4;" xml:space="preserve">
<style type="text/css">
	.st0{fill:#010101;}
	.st1{fill:#A2227B;}
	.st2{fill:#EF3C4A;}
	.st3{fill:#FFFFFF;}
</style>
<rect y="268.4" class="st0" width="960" height="191"/>
<g>
	<g>
		<g>
			<rect x="0.1" y="268.4" class="st1" width="116.5" height="191"/>
			<rect x="120.6" y="268.4" class="st1" width="116.5" height="191"/>
			<rect x="241.1" y="268.4" class="st1" width="116.5" height="191"/>
			<rect x="361.6" y="268.4" class="st1" width="116.5" height="191"/>
			<rect x="482.1" y="268.4" class="st1" width="116.5" height="191"/>
			<rect x="602.6" y="268.4" class="st1" width="116.5" height="191"/>
			<rect x="723.1" y="268.4" class="st1" width="116.5" height="191"/>
			<rect x="843.6" y="268.4" class="st1" width="116.5" height="191"/>
		</g>
		<g>
			<path class="st2" d="M116.6,459.4v-166c-33.2-3.6-70.4-5.9-116.5-7.2v173.2L116.6,459.4L116.6,459.4z"/>
			<path class="st2" d="M237.1,459.4V315.8c-39.5-10.3-75-17.2-116.5-21.9v165.5H237.1L237.1,459.4z"/>
			<path class="st2" d="M357.6,459.4v-108c-45.9-14.4-82.8-25.7-116.5-34.6v142.5h116.5V459.4z"/>
			<path class="st2" d="M478.1,459.4v-70.2c-15.2-4.8-31-9.8-47.5-14.9c-25.3-7.9-48.1-15.1-69-21.6v106.7H478.1L478.1,459.4z"/>
			<path class="st2" d="M598.6,459.4v-34.6c-35.2-8.9-73.3-20.7-116.5-34.3v68.9H598.6L598.6,459.4z"/>
			<path class="st2" d="M719.1,459.4v-17.2c-36.8,0.1-74.5-6-116.5-16.4v33.6H719.1L719.1,459.4z"/>
			<path class="st2" d="M839.6,459.4v-32.5c-36,5.6-56.2,11.1-96.6,14.3c-6.6,0.5-13.2,0.8-19.8,0.9v17.2h116.4V459.4z"/>
			<path class="st2" d="M960.1,459.4v-44c-4.7,0.1-9.5,0.3-14.5,0.6c-47.3,3.1-78.1,6.7-102,10.3v33.1H960.1L960.1,459.4z"/>
		</g>
	</g>
	<path class="st3" d="M100.1,295.2L86.6,435h-5.8l-22.3-82.9h-0.4L35.8,435H30L16.5,295.2l13.5-2.7l6.4,103h0.4l19.5-72.2h4
		l19.5,72.2h0.4l6.4-103L100.1,295.2z"/>
	<path class="st3" d="M193.9,377.7h-30.1l14.9-64.1h0.4L193.9,377.7z M197.1,390l10.4,45l13.3-3.7l-33.9-136.1h-16.1l-33.9,136.1
		l13.2,3.7l10.4-45H197.1z"/>
	<path class="st3" d="M292.9,307.6H264v-12.3h70.7v12.3h-28.3v124.8h-13.5V307.6z"/>
	<path class="st3" d="M457.4,411.8c-7.8,12.9-19.5,22.4-34.8,22.4c-34.9,0-40.2-43.2-40.2-70.3c0-27.4,5.2-70.5,40.2-70.5
		c15.3,0,25.7,9.1,32.7,22.2l-11.4,7c-4.2-8.6-11-16.2-21.3-16.2c-24.5,0-26.1,39.5-26.1,57.6c0,17.9,1.6,57.4,26.1,57.4
		c10.4,0,18.7-8.8,23.7-17.3L457.4,411.8z"/>
	<path class="st3" d="M506.2,295.2h13.5v57.6h41.4v-57.6h13.5v137.1h-13.5v-67.2h-41.4v67.2h-13.5V295.2L506.2,295.2z"/>
	<path class="st3" d="M660.8,306.3c23.7,0,23.1,31.5,23.1,57.4c0,23.9,0.2,57.6-23.1,57.6c-18.9,0-23.1-20.6-23.1-57.6
		C637.7,343.5,637.1,306.3,660.8,306.3z M660.8,293.4c-35.8,0-37.2,47.7-37.2,70.3c0,17.7-1,70.5,37.2,70.5
		c37.8,0,37.2-53.2,37.2-70.5C698,345.6,698.6,293.4,660.8,293.4z"/>
	<path class="st3" d="M762,295.2v99.7c0,13.6,2.6,26.3,19.3,26.3s19.5-13,19.5-26.3v-99.7h13.5V399c0,21.4-13.1,35.2-32.9,35.2
		c-20.3,0-32.7-14.2-32.7-34.5V295.2H762z"/>
	<path class="st3" d="M937.2,324.9h-1.6v-10.1h-0.1l-3.9,10.1h-1.1l-3.8-10.1h0v10.1h-1.6v-11.7h2.8l3.3,8.3l3.4-8.3h2.7
		L937.2,324.9L937.2,324.9z M923.7,314.9h-3.8V325h-1.6v-10.1h-3.9v-1.7h9.3V314.9L923.7,314.9z"/>
	<path class="st3" d="M895.4,307.6h-28.9v-12.3h70.7v12.3h-28.3v124.8h-13.5V307.6z"/>
</g>
<g>
	<path d="M517.7,56.1c0.1,0,0.1,30.8,0,30.8c0,15.6,7.6,28.2,26.6,29.8v12.4c-24.7-0.1-39-18-39-42.1V56.1h-9.6V44.2h9.6V23.4h12.4
		v20.8H543v11.9H517.7L517.7,56.1z"/>
	<path d="M430.1,57.1V44.6c29.4-7.9,49.8,6.3,57.6,27.3L508,127h-13.3l-8.4-22.3c-8.3,16.3-25.2,26.2-42.5,25.6
		c-9.1-0.3-17.7-3.4-23.5-11.3c-4.1-6-5.3-14.1-3.5-21.5c2.8-8.8,11.4-15.8,20.4-17.2c9-1.2,40.3-0.5,40.2-0.6
		C472.4,66.6,459.9,44.8,430.1,57.1z M429.7,110.7c5.5,8.2,14.9,9,23.5,7.1c12.6-3,24.6-14.2,28.6-27.2c-12.2,0.6-30-0.4-40.8,1
		C424.5,93.7,427.8,107.3,429.7,110.7z"/>
	<path d="M649.5,56.1c0.1,0,0.1,30.8,0,30.8c0,15.6,7.6,28.2,26.6,29.8v12.4c-24.7-0.1-39-18-39-42.1V56.1h-9.6V44.2h9.6V23.4h12.4
		v20.8h25.3v11.9H649.5L649.5,56.1z"/>
	<path d="M751.6,85.6c0,17.7-14.3,32-32,32s-32-14.3-32-32s14.3-32,32-32C737.3,53.6,751.6,67.9,751.6,85.6z M719.6,41.1
		c-24.6,0-44.5,19.9-44.5,44.5s19.9,44.5,44.5,44.5s44.5-19.9,44.5-44.5S744.1,41.1,719.6,41.1z"/>
	<path d="M562,57.1V44.6c29.4-7.9,48.2,5.6,57,26.7l20.9,55.6h-13.3l-7.9-22.3c-8.3,16.3-25.8,26.2-43,25.6
		c-9.1-0.3-17.7-3.4-23.5-11.3c-4.1-6-5.3-14.1-3.5-21.5c2.8-8.8,11.4-15.8,20.3-17.2c9-1.2,40.3-0.5,40.2-0.6
		C607.8,68.7,591.7,44.8,562,57.1z M561.6,110.7c5.5,8.2,14.9,9,23.5,7.1c12.6-3,24.6-14.2,28.7-27.2c-12.2,0.6-30-0.4-40.8,1
		C556.3,93.7,559.6,107.3,561.6,110.7z"/>
	<path d="M398.9,0v54.8c-8.1-8.4-19.4-13.7-32-13.7c-24.6,0-44.5,19.9-44.5,44.5s19.9,44.5,44.5,44.5c24.5,0,44.5-19.9,44.5-44.5V0
		H398.9z M366.9,117.6c-17.7,0-32-14.3-32-32s14.3-32,32-32s32,14.3,32,32S384.5,117.6,366.9,117.6z"/>
	<path d="M196.3,8.7H196c0,0,0,54.1,0,55.6c-0.2-0.3-0.4-0.5-0.4-0.5c-7-9.2-8.9-10.9-12.5-13.9c-4.8-4.1-10.2-6.2-15.6-6.2
		c-5.9,0-12.3,3.3-15.7,6.3l-0.4,0.4c-2.7,2.4-5.3,4.7-12,13.5c-3.1,4-11,16.7-11.9,18.2l-0.1,0.2l10.6,6.6l0.1-0.2
		c2.3-3.8,8.9-14.2,11.2-17.2c6-7.8,8-9.6,10.3-11.7l0.4-0.4c1.7-1.5,5.1-3.2,7.4-3.2c3,0,5.8,1.8,7.5,3.3c2.8,2.3,4.2,3.5,10.6,12
		c3.5,4.5,8.3,12.4,10.3,15.6c0,0.1,0,74.8,0,74.8h4.4c42.2,0,76.5-34.3,76.5-76.5S242.4,8.9,200.2,8.9h-3.9V8.7z M208.5,21.7
		c26.2,3.3,47.9,22.8,54.1,48.6c0.6,2.5,0.9,5.4,0.9,8.3c0,2.3-0.2,4.5-0.6,6.6c-1.1,6-4.9,13-6.5,15.3c-9.9,14.5-16.1,14.1-18.8,14
		h-0.7c-3,0-5.8-1.8-7.5-3.3c-2.8-2.3-4.2-3.5-10.6-12c-3.5-4.6-8.3-12.4-10.3-15.6C208.5,83.4,208.5,22.3,208.5,21.7z M208.5,106.2
		c0.2,0.3,0.4,0.5,0.4,0.5c7,9.2,8.9,10.9,12.5,13.9c4.8,4.1,10.2,6.2,15.6,6.2c5.9,0,12.3-3.3,15.7-6.3l0.4-0.4
		c0.7-0.7,1.5-1.4,2.4-2.2c-10.1,16.9-27.4,28.3-46.9,30.8C208.5,148.2,208.5,107.6,208.5,106.2z"/>
	<path d="M771.4,126.9V71.7c0-16.9,13.7-30.6,30.6-30.6s30.6,13.7,30.6,30.6v55.2h-12.4V71.7c0-10-8.2-18.2-18.2-18.2
		s-18.2,8.2-18.2,18.2v55.2H771.4z"/>
</g>
</svg>
