<svg enable-background="new 0 0 216 216" viewBox="0 0 216 216" xmlns="http://www.w3.org/2000/svg" xmlns:xlink="http://www.w3.org/1999/xlink"><linearGradient id="a"><stop offset="0" stop-color="#fff"/><stop offset="1" stop-color="#fff" stop-opacity="0"/></linearGradient><linearGradient id="b" gradientTransform="matrix(0 -1 -.9303 0 -86.7898 -643.8022)" gradientUnits="userSpaceOnUse" x1="-748.4891" x2="-747.6331" xlink:href="#a" y1="-102.3774" y2="-110.2764"/><linearGradient id="c" gradientTransform="matrix(0 1 .9303 0 -844.8185 228.4962)" gradientUnits="userSpaceOnUse" x1="-126.4081" x2="-125.5521" xlink:href="#a" y1="1131.2451" y2="1123.3461"/><linearGradient id="d" gradientTransform="matrix(1 0 0 -.9303 0 195.5865)" gradientUnits="userSpaceOnUse" x1="108.414" x2="109.27" xlink:href="#a" y1="174.905" y2="167.006"/><linearGradient id="e" gradientTransform="matrix(-1 0 0 .9303 -931.9762 -610.2695)" gradientUnits="userSpaceOnUse" x1="-1039.5859" x2="-1038.73" xlink:href="#a" y1="847.4073" y2="839.5082"/><g transform="matrix(1 0 0 .930282 0 .766728)"><path d="m31.7 41.8c7.8 29.9 4.4 67.4 169.2 10.7l8.7 86.1c1.5 15.2-9.5 28.8-24.7 30.3-39.6-81.3-129.9-70-169.2-10.6l-8.7-86.1c-1.5-15.3 9.5-28.8 24.7-30.4z" fill="#08a7e6"/><path d="m14.9 149.6-8.3-78.6s-1-8.6 6.8-10.1c7.8-1.6 17.4-4.2 17.4-4.2z" fill="url(#b)"/><path d="m201.2 53.6 8.5 85.7s1 8.6-6.8 10.1c-7.8 1.6-17.4 4.2-17.4 4.2z" fill="url(#c)"/><path d="m31.7 41.8 138.9-14c15.3-1.5 28.8 9.5 30.3 24.7-84.2 22.3-89.9 82.5-16 116.5l-138.8 14c-15.3 1.5-28.8-9.5-30.3-24.7 96.7-32.8 85.4-78.1 15.9-116.5z" fill="#322374"/><path d="m33.5 41.6 138.5-13.8s8.6-1 10.1 6.8 4.2 17.4 4.2 17.4z" fill="url(#d)"/><path d="m182.5 169.3-138.5 13.8s-8.6 1-10.1-6.8c-1.6-7.8-4.2-17.4-4.2-17.4z" fill="url(#e)"/></g><path d="m28.5 39.5h159.2c7.6 0 13.7 6.1 13.7 13.7v93.9c0 7.6-6.1 13.7-13.7 13.7h-159.2c-7.6 0-13.7-6.1-13.7-13.7v-93.9c0-7.6 6.1-13.7 13.7-13.7z" fill="#fff"/><path d="m36.7 82.9h5.7l7 21.2 7.1-21.2h5.6l5.1 30.5h-5.6l-3.3-19.2-6.5 19.2h-5.1l-6.4-19.2-3.3 19.2h-5.7zm35.2 0h6.2c3.3 0 5.7.3 7.2.9s2.6 1.6 3.5 3 1.3 3 1.3 4.9c0 2.1-.6 3.9-1.7 5.3s-2.6 2.4-4.5 2.9c-1.1.3-3.2.5-6.1.5v12.9h-5.8v-30.4m5.7 11.9h1.8c1.4 0 2.5-.1 3-.3.6-.2 1-.5 1.3-1s.5-1.1.5-1.7c0-1.2-.5-2-1.4-2.6-.7-.4-1.9-.6-3.7-.6h-1.6v6.2" fill="#322374"/><path d="m97.6 85.8-4.2 22.3c-.2 1-.3 1.7-.3 2.2 0 2 1.3 3.1 3.7 3.1 1.4 0 3.6-.6 6.6-1.7v-1.6c-1.3.4-2.4.6-3.4.6s-1.7-.8-1.7-2.1c0-.8.2-1.8.5-3.1l4.4-23.4h-1.8l-7.2 1.6v1.5zm26 6.6-1.6 1c-1.7-.7-3.3-1.1-4.9-1.1-3.7 0-7.2 1.9-9.3 5.1-1.7 2.6-2.5 5.3-2.5 8.4 0 4.8 2.3 7.6 6 7.6 2.1 0 4.3-1.1 6.7-3.4v.2c0 2 1.1 3.1 3.1 3.1 1.6 0 3.7-.5 6.3-1.5v-1.6c-1 .3-1.9.5-2.8.5-1 0-1.8-.8-1.8-2.3 0-.5.1-1.6.4-2.9l1.3-6.8c.6-3.5 1.2-5.6 1.4-6.4h-2.3m-5.1 2.1 1.7 2.5-2 11.1c-1.6 1.3-2.9 2-4.2 2-2.1 0-3.2-1.6-3.2-4.8 0-6.4 3.3-10.8 7.2-10.8.1-.1.3 0 .5 0m16-2.1-6.5 1.5v1.4l3.7.3c.5.9.8 2 1.1 3.2l2.5 13.3h1.6c-2.3 4.3-4.4 6.6-6.3 6.8l-2.8-2.6c-1.5.3-2.4 1.4-2.4 2.8 0 1.7 1.5 3.2 3.5 3.2 3.4 0 6.9-3.3 10.6-10 3.2-5.8 4.9-11.8 8.2-16.2l2.5-1.4v-1.1l-3.3-1.1h-1.3c-2.6 6-4.7 11.3-6.4 15.6l-1.4-9.2c-.7-4.1-1.5-6.2-3.3-6.5m20.8 11.2h1.3c7 0 10.9-2.6 10.9-6.6 0-2.8-1.9-4.6-5.2-4.6-2.5 0-5.2 1-7.3 2.8-3.1 2.6-4.7 6.3-4.7 10.2 0 5 2.8 8 7.4 8 2.5 0 5.5-1.1 8.6-3.5l.1-2.6c-2.5 2-4.8 2.9-6.6 2.9-2.8 0-4.5-1.9-4.5-5.5-.1-.2 0-.6 0-1.1m.4-1.7c1.2-4.7 3.4-7.2 5.5-7.2 1.3 0 2.1.8 2.1 2.1 0 2.4-2.9 4.8-7.6 5.1m21.5-9.4-7.2 1.7v1.4l3.5.5-3.4 17.1h5.2l1.6-9.7c.6-3.7 2.2-6 5.6-7.5l1.1 3.2h.1c2.5 0 4.1-1.6 4.1-3.6 0-1.8-1.3-3.1-3.1-3.1-2 0-4.5 1.8-7.2 5.6l1.2-5.6z"/><g transform="translate(0 -10)"><path d="m149.4 170.7c0-13.8 11.2-25.1 25.1-25.1 13.8 0 25.1 11.2 25.1 25.1 0 13.8-11.2 25.1-25.1 25.1-13.8 0-25.1-11.2-25.1-25.1" style="fill:#fff;stroke:#322374;stroke-width:6;stroke-linecap:round;stroke-linejoin:round;stroke-miterlimit:1"/><path d="m164.2 154.5 29.6 17.1-29.7 16.2z"/></g></svg>