<svg height="95.725" width="96" xmlns="http://www.w3.org/2000/svg" xmlns:xlink="http://www.w3.org/1999/xlink"><filter id="a" color-interpolation-filters="sRGB"><feGaussianBlur stdDeviation="1.055"/></filter><linearGradient id="b" gradientUnits="userSpaceOnUse" x1="25.106998" x2="96.724998" y1="12.802997" y2="89.781997"><stop offset="0" stop-color="#a2a2a2"/><stop offset=".105" stop-color="#c0c0c0"/><stop offset=".206" stop-color="#ccc"/><stop offset=".387" stop-color="#ededed"/><stop offset=".517" stop-color="#efefef"/><stop offset=".67" stop-color="#dfdfdf"/><stop offset="1" stop-color="#dfdfdf"/></linearGradient><radialGradient id="c" cx="54.583" cy="32.168" gradientTransform="matrix(.99263199 -1.1150646 1.1139048 .99157145 -28.90053 80.473319)" gradientUnits="userSpaceOnUse" r="35.438"><stop offset="0" stop-color="#fff"/><stop offset=".933" stop-color="#fff" stop-opacity="0"/><stop offset=".966" stop-color="#fff"/><stop offset=".986" stop-color="#fff" stop-opacity="0"/><stop offset="1" stop-color="#fff" stop-opacity="0"/></radialGradient><filter id="d" color-interpolation-filters="sRGB"><feGaussianBlur stdDeviation=".436"/></filter><filter id="e" color-interpolation-filters="sRGB"><feGaussianBlur stdDeviation="1.165"/></filter><linearGradient id="f" gradientUnits="userSpaceOnUse" x1="-17.089" x2="-48.375" y1="56.067" y2="84.527"><stop offset="0" stop-color="#6bdbf9"/><stop offset=".395" stop-color="#3e95dc"/><stop offset=".492" stop-color="#1762c9"/><stop offset=".814" stop-color="#163b86"/><stop offset="1" stop-color="#163e8c"/></linearGradient><filter id="g" color-interpolation-filters="sRGB"><feGaussianBlur stdDeviation="1.067"/></filter><linearGradient id="h" gradientUnits="userSpaceOnUse" x1="-65.923" x2="11.849" y1="34.596999" y2="123.300999"><stop offset="0" stop-color="#154ea9" stop-opacity="0"/><stop offset=".413" stop-color="#fff" stop-opacity=".36"/><stop offset=".943" stop-color="#fff"/><stop offset="1" stop-color="#fff"/></linearGradient><filter id="i" color-interpolation-filters="sRGB"><feGaussianBlur stdDeviation=".782"/></filter><linearGradient id="j" gradientUnits="userSpaceOnUse" x1="-77.107" x2="-55.275" xlink:href="#k" y1="22.107" y2="45.884"/><linearGradient id="k"><stop offset="0" stop-color="#fff"/><stop offset="1" stop-color="#fff" stop-opacity="0"/></linearGradient><filter id="l" color-interpolation-filters="sRGB"><feGaussianBlur stdDeviation=".34"/></filter><filter id="m" color-interpolation-filters="sRGB"><feGaussianBlur stdDeviation=".932"/></filter><linearGradient id="n" gradientUnits="userSpaceOnUse" x1="20.356514" x2="27.556514" y1="66.228135" y2="97.751135"><stop offset="0" stop-color="#ff6a2f"/><stop offset="1" stop-color="#ffa930"/></linearGradient><filter id="o" color-interpolation-filters="sRGB"><feGaussianBlur stdDeviation=".613"/></filter><linearGradient id="p" gradientUnits="userSpaceOnUse" x1="87.789" x2="88.033" y1="109.205" y2="69.202"><stop offset="0" stop-color="#8b8c8b"/><stop offset=".066" stop-color="#b2b2b2"/><stop offset=".13" stop-color="#bebebe"/><stop offset=".186" stop-color="#9d9d9d"/><stop offset=".248" stop-color="#a3a3a3"/><stop offset=".301" stop-color="#a9a9ac"/><stop offset=".361" stop-color="#c0c0c3"/><stop offset=".437" stop-color="#fff"/><stop offset=".515" stop-color="#fff"/><stop offset=".599" stop-color="#fff"/><stop offset=".627" stop-color="#e2e3ea"/><stop offset=".705" stop-color="#bbbbc2"/><stop offset=".802" stop-color="#ababaf"/><stop offset=".837" stop-color="#a2a2a5"/><stop offset=".959" stop-color="#c0c4c9"/><stop offset="1" stop-color="#97908b"/></linearGradient><filter id="q" color-interpolation-filters="sRGB"><feGaussianBlur stdDeviation=".318"/></filter><linearGradient id="r" gradientUnits="userSpaceOnUse" x1="87.789" x2="88.033" y1="109.205" y2="69.202"><stop offset="0" stop-color="#c9ccd8"/><stop offset=".066" stop-color="#c9ccd8"/><stop offset=".13" stop-color="#b7bbc1"/><stop offset=".17" stop-color="#bbbfc7"/><stop offset=".26" stop-color="#c2c4ca"/><stop offset=".342" stop-color="#bdbfc2"/><stop offset=".386" stop-color="#dbdce2"/><stop offset=".426" stop-color="#fff"/><stop offset=".515" stop-color="#fff"/><stop offset=".599" stop-color="#fff"/><stop offset=".627" stop-color="#e2e3ea"/><stop offset=".705" stop-color="#d7d8e7"/><stop offset=".802" stop-color="#bfc2d6"/><stop offset=".837" stop-color="#b7b9c6"/><stop offset=".959" stop-color="#d1d4db"/><stop offset="1" stop-color="#c7c9d1"/></linearGradient><filter id="s" color-interpolation-filters="sRGB"><feGaussianBlur stdDeviation=".317"/></filter><linearGradient id="t" gradientUnits="userSpaceOnUse" x1="87.789" x2="88.033" y1="109.205" y2="69.202"><stop offset="0" stop-color="#545454"/><stop offset=".066" stop-color="#4e4e4e"/><stop offset=".13" stop-color="#404041"/><stop offset=".205" stop-color="#3f3f40"/><stop offset=".26" stop-color="#3f3f40"/><stop offset=".342" stop-color="#343435"/><stop offset=".386" stop-color="#353535"/><stop offset=".445" stop-color="#363535"/><stop offset=".515" stop-color="#343434"/><stop offset=".611" stop-color="#373736"/><stop offset=".664" stop-color="#373737"/><stop offset=".749" stop-color="#333"/><stop offset=".82" stop-color="#343434"/><stop offset=".903" stop-color="#424247"/><stop offset=".959" stop-color="#59596f"/><stop offset="1" stop-color="#464e58"/></linearGradient><filter id="u" color-interpolation-filters="sRGB"><feGaussianBlur stdDeviation=".139"/></filter><filter id="v" color-interpolation-filters="sRGB"><feGaussianBlur stdDeviation=".149"/></filter><radialGradient id="w" cx="69.367" cy="81.123" gradientTransform="matrix(.64886618 2.6578501 -.75487463 .18428903 83.28708 -104.71356)" gradientUnits="userSpaceOnUse" r="3.081" xlink:href="#x"/><linearGradient id="x"><stop offset="0" stop-color="#686868"/><stop offset="1" stop-color="#9e9da0"/></linearGradient><radialGradient id="y" cx="46.936" cy="79.183" gradientTransform="matrix(.95489931 .29692982 -.91589438 2.9454331 94.70453 -164.91748)" gradientUnits="userSpaceOnUse" r="3.081" xlink:href="#x"/><filter id="z" color-interpolation-filters="sRGB"><feGaussianBlur stdDeviation=".085"/></filter><radialGradient id="A" cx="63.645" cy="94.783" gradientTransform="matrix(-7.1897579 .00192945 -.00489426 -16.240978 534.97786 1628.0529)" gradientUnits="userSpaceOnUse" r="2.594"><stop offset="0" stop-color="#ececff"/><stop offset=".505" stop-color="#e3e3f1"/><stop offset=".563" stop-color="#a5a5aa"/><stop offset=".615" stop-color="#e1e1f0"/><stop offset=".671" stop-color="#d6d7e5"/><stop offset=".743" stop-color="#8e92ae"/><stop offset="1" stop-opacity="0"/></radialGradient><linearGradient id="B" gradientUnits="userSpaceOnUse" x1="87.942" x2="88.136" y1="126.102997" y2="50.505997"><stop offset="0" stop-color="#ebebf3"/><stop offset=".181" stop-color="#878788"/><stop offset=".213" stop-color="#7e7e7e"/><stop offset=".245" stop-color="#868687"/><stop offset=".35" stop-color="#b4b4be"/><stop offset=".438" stop-color="#ebebff"/><stop offset=".487" stop-color="#ebebff"/><stop offset=".551" stop-color="#ebebff"/><stop offset=".643" stop-color="#b6b6c1"/><stop offset=".768" stop-color="#89898b"/><stop offset=".802" stop-color="#828282"/><stop offset=".837" stop-color="#909091"/><stop offset="1" stop-color="#f1f2f7"/></linearGradient><linearGradient id="C" gradientUnits="userSpaceOnUse" x1="90.2" x2="113.14" y1="86.610997" y2="86.803997"><stop offset="0" stop-color="#fff"/><stop offset="1" stop-color="#c5c6d2"/></linearGradient><radialGradient id="D" cx="84.116" cy="88.117" gradientTransform="matrix(.99730446 .0050556 -.0091353 1.5848826 5.111456 -51.916776)" gradientUnits="userSpaceOnUse" r="16.396"><stop offset="0" stop-color="#a6a6a2"/><stop offset="1" stop-color="#606060"/></radialGradient><filter id="E" color-interpolation-filters="sRGB"><feGaussianBlur stdDeviation=".215"/></filter><filter id="F" color-interpolation-filters="sRGB"><feGaussianBlur stdDeviation=".313"/></filter><radialGradient id="G" cx="96.793" cy="88.723" gradientTransform="matrix(-.30973491 -1.6717554 1.8875508 -.2602136 -39.846809 272.85789)" gradientUnits="userSpaceOnUse" r="11.579"><stop offset="0" stop-color="#fff"/><stop offset=".179" stop-color="#fff"/><stop offset="1" stop-color="#7676d1"/></radialGradient><radialGradient id="H" cx="93.988" cy="90.22" gradientTransform="matrix(-.31275381 -9.3201847 5.9262937 -.51111319 -413.82407 1010.6238)" gradientUnits="userSpaceOnUse" r="2.828" xlink:href="#k"/><filter id="I" color-interpolation-filters="sRGB" height="1.079" width="1.323" x="-.162" y="-.04"><feGaussianBlur stdDeviation=".381"/></filter><filter id="J" color-interpolation-filters="sRGB"><feGaussianBlur stdDeviation=".253"/></filter><radialGradient id="K" cx="45.637" cy="88.726" gradientTransform="matrix(.89120883 .00000045 -.00002407 1.6890487 52.333737 -61.375791)" gradientUnits="userSpaceOnUse" r="19.547"><stop offset="0" stop-color="#949494"/><stop offset=".924" stop-color="#575757"/><stop offset=".966" stop-color="#949494"/><stop offset="1" stop-color="#535353"/></radialGradient><g transform="matrix(.6583238 0 0 .6583238 19.44902 5.99282)"><g transform="translate(40.643278 .42885)"><path d="m12.5-7c-29.133021 0-52.75 23.616979-52.75 52.75s23.616979 52.75 52.75 52.75 52.75-23.616979 52.75-52.75-23.616979-52.75-52.75-52.75zm13.375 7.25c7.662951 0 13.875 6.212049 13.875 13.875s-6.212049 13.875-13.875 13.875-13.875-6.212049-13.875-13.875 6.212049-13.875 13.875-13.875zm-32 3.75c7.662951 0 13.875 6.212049 13.875 13.875s-6.212049 13.875-13.875 13.875-13.875-6.212049-13.875-13.875 6.212049-13.875 13.875-13.875zm52.5 24.25c7.66295 0 13.875 6.212049 13.875 13.875s-6.21205 13.875-13.875 13.875c-7.662951 0-13.875-6.212049-13.875-13.875s6.212049-13.875 13.875-13.875zm-67.25 5.25c7.662951 0 13.875 6.212049 13.875 13.875s-6.212049 13.875-13.875 13.875-13.875-6.212049-13.875-13.875 6.212049-13.875 13.875-13.875zm36.46875 0c1.743149 0 3.15625 1.413101 3.15625 3.15625s-1.413101 3.15625-3.15625 3.15625-3.15625-1.413101-3.15625-3.15625 1.413101-3.15625 3.15625-3.15625zm-9.5 3.375c1.743149 0 3.15625 1.413101 3.15625 3.15625s-1.413101 3.15625-3.15625 3.15625-3.15625-1.413101-3.15625-3.15625 1.413101-3.15625 3.15625-3.15625zm15.625 5.125c1.743149 0 3.15625 1.413101 3.15625 3.15625s-1.413101 3.15625-3.15625 3.15625-3.15625-1.413101-3.15625-3.15625 1.413101-3.15625 3.15625-3.15625z" filter="url(#a)"/><path d="m12.5-7c-29.133021 0-52.75 23.616979-52.75 52.75s23.616979 52.75 52.75 52.75 52.75-23.616979 52.75-52.75-23.616979-52.75-52.75-52.75zm13.375 7.25c7.662951 0 13.875 6.212049 13.875 13.875s-6.212049 13.875-13.875 13.875-13.875-6.212049-13.875-13.875 6.212049-13.875 13.875-13.875zm-32 3.75c7.662951 0 13.875 6.212049 13.875 13.875s-6.212049 13.875-13.875 13.875-13.875-6.212049-13.875-13.875 6.212049-13.875 13.875-13.875zm52.5 24.25c7.66295 0 13.875 6.212049 13.875 13.875s-6.21205 13.875-13.875 13.875c-7.662951 0-13.875-6.212049-13.875-13.875s6.212049-13.875 13.875-13.875zm-67.25 5.25c7.662951 0 13.875 6.212049 13.875 13.875s-6.212049 13.875-13.875 13.875-13.875-6.212049-13.875-13.875 6.212049-13.875 13.875-13.875zm36.46875 0c1.743149 0 3.15625 1.413101 3.15625 3.15625s-1.413101 3.15625-3.15625 3.15625-3.15625-1.413101-3.15625-3.15625 1.413101-3.15625 3.15625-3.15625zm-9.5 3.375c1.743149 0 3.15625 1.413101 3.15625 3.15625s-1.413101 3.15625-3.15625 3.15625-3.15625-1.413101-3.15625-3.15625 1.413101-3.15625 3.15625-3.15625zm15.625 5.125c1.743149 0 3.15625 1.413101 3.15625 3.15625s-1.413101 3.15625-3.15625 3.15625-3.15625-1.413101-3.15625-3.15625 1.413101-3.15625 3.15625-3.15625z" fill="#9a9a9a"/></g><path d="m106.14107 8.1923895c0 23.1519755-18.768383 41.9203605-41.920359 41.9203605s-41.920361-18.768385-41.920361-41.9203605 18.768385-41.9203605 41.920361-41.9203605 41.920359 18.768385 41.920359 41.9203605z" transform="matrix(1.0716086 0 0 1.0396426 -14.635811 35.11313)"/><path d="m106.14107 8.1923895c0 23.1519755-18.768383 41.9203605-41.920359 41.9203605s-41.920361-18.768385-41.920361-41.9203605 18.768385-41.9203605 41.920361-41.9203605 41.920359 18.768385 41.920359 41.9203605z" fill="#363636" transform="matrix(1.062667 0 0 1.030611 -6.11518 39.63626)"/><path d="m61-1.0000029c-29.133021 0-52.75 23.6169789-52.75 52.7499999s23.616979 52.750003 52.75 52.750003c29.133018 0 52.75-23.616982 52.75-52.750003s-23.616982-52.7499999-52.75-52.7499999zm13.374998 7.2499999c7.66295 0 13.875 6.212049 13.875 13.875s-6.21205 13.875-13.875 13.875c-7.662949 0-13.874998-6.212049-13.874998-13.875s6.212049-13.875 13.874998-13.875zm-31.999998 3.75c7.662951 0 13.875 6.212049 13.875 13.875s-6.212049 13.875-13.875 13.875-13.875-6.212049-13.875-13.875 6.212049-13.875 13.875-13.875zm52.499998 24.25c7.662952 0 13.875002 6.212049 13.875002 13.875s-6.21205 13.875-13.875002 13.875c-7.66295 0-13.875-6.212049-13.875-13.875s6.21205-13.875 13.875-13.875zm-67.249998 5.25c7.662951 0 13.875 6.212049 13.875 13.875s-6.212049 13.875-13.875 13.875-13.875-6.212049-13.875-13.875 6.212049-13.875 13.875-13.875zm36.46875 0c1.743149 0 3.15625 1.413101 3.15625 3.15625s-1.413101 3.15625-3.15625 3.15625-3.15625-1.413101-3.15625-3.15625 1.413101-3.15625 3.15625-3.15625zm-9.5 3.375c1.743149 0 3.15625 1.413101 3.15625 3.15625s-1.413101 3.15625-3.15625 3.15625-3.15625-1.413101-3.15625-3.15625 1.413101-3.15625 3.15625-3.15625zm15.625 5.125c1.743148 0 3.156248 1.413101 3.156248 3.15625s-1.4131 3.15625-3.156248 3.15625c-1.743149 0-3.15625-1.413101-3.15625-3.15625s1.413101-3.15625 3.15625-3.15625z" filter="url(#a)"/><path d="m61-1.0000029c-29.133021 0-52.75 23.6169789-52.75 52.7499999s23.616979 52.750003 52.75 52.750003c29.133018 0 52.75-23.616982 52.75-52.750003s-23.616982-52.7499999-52.75-52.7499999zm13.374998 7.2499999c7.66295 0 13.875 6.212049 13.875 13.875s-6.21205 13.875-13.875 13.875c-7.662949 0-13.874998-6.212049-13.874998-13.875s6.212049-13.875 13.874998-13.875zm-31.999998 3.75c7.662951 0 13.875 6.212049 13.875 13.875s-6.212049 13.875-13.875 13.875-13.875-6.212049-13.875-13.875 6.212049-13.875 13.875-13.875zm52.499998 24.25c7.662952 0 13.875002 6.212049 13.875002 13.875s-6.21205 13.875-13.875002 13.875c-7.66295 0-13.875-6.212049-13.875-13.875s6.21205-13.875 13.875-13.875zm-67.249998 5.25c7.662951 0 13.875 6.212049 13.875 13.875s-6.212049 13.875-13.875 13.875-13.875-6.212049-13.875-13.875 6.212049-13.875 13.875-13.875zm36.46875 0c1.743149 0 3.15625 1.413101 3.15625 3.15625s-1.413101 3.15625-3.15625 3.15625-3.15625-1.413101-3.15625-3.15625 1.413101-3.15625 3.15625-3.15625zm-9.5 3.375c1.743149 0 3.15625 1.413101 3.15625 3.15625s-1.413101 3.15625-3.15625 3.15625-3.15625-1.413101-3.15625-3.15625 1.413101-3.15625 3.15625-3.15625zm15.625 5.125c1.743148 0 3.156248 1.413101 3.156248 3.15625s-1.4131 3.15625-3.156248 3.15625c-1.743149 0-3.15625-1.413101-3.15625-3.15625s1.413101-3.15625 3.15625-3.15625z" fill="url(#b)"/><path d="m61-1.0000029c-29.133021 0-52.75 23.6169789-52.75 52.7499999 0 24.363141 16.521914 44.844713 38.96875 50.906253-20.198121-7.39552-34.625-26.80233-34.625-49.562503 0-29.133021 23.616979-52.74999993 52.75-52.74999993 4.767602 0 9.388428.65810293 13.781248 1.84374993-5.65547-2.07074653-11.75215-3.1874999-18.124998-3.1874999z" fill="url(#c)" filter="url(#d)"/><g transform="translate(60 -.000003)"><path d="m-86.7461 43.744607 83.31464 89.762273 31.12705-28.8912-83.31464-89.762272zm3.22532 1.269998 3.115-2.891245 5.78249 6.229991-3.114996 2.891246zm25.85905-24.001591 3.09209-2.869987 5.78249 6.229991-3.09209 2.869987zm-20.293798 21.223737 19.835188-18.410433 24.17167 26.04228-19.83519 18.410433zm2.640787 11.618945 3.114995-2.891246 5.782491 6.229991-3.114996 2.891246zm25.859041-24.001592 3.09209-2.869987 5.7825 6.229992-3.0921 2.869986zm-17.653006 32.842682 3.114995-2.891245 5.782491 6.229991-3.114995 2.891246zm25.859046-24.001591 3.09209-2.869987 5.78249 6.229991-3.09209 2.869987zm-17.65301 32.842682 3.115-2.891246 5.78249 6.229992-3.115 2.891245zm25.85904-24.001592 3.0921-2.869986 5.78249 6.229991-3.09209 2.869986zm-18.29543 23.376749 19.83519-18.410432 24.17166 26.042276-19.83519 18.410433zm.64242 9.465931 3.115-2.891246 5.78249 6.229991-3.115 2.891246zm25.85905-24.001592 3.09209-2.869987 5.78249 6.229991-3.09209 2.869987zm-17.65301 32.842682 3.11499-2.891246 5.7825 6.229992-3.115 2.891245zm25.85904-24.001592 3.09209-2.869986 5.7825 6.229991-3.0921 2.869987zm-17.65301 32.842683 3.115-2.891246 5.78249 6.23-3.11499 2.89125zm25.85905-24.001592 3.09209-2.869987 5.78249 6.229992-3.09209 2.869986zm-16.63722 25.163291 19.83519-18.410433 24.17167 26.042288-19.8352 18.41044zm-1.01579 7.679405 3.115-2.89125 5.80375 6.2529-3.115 2.89124zm25.85904-24.001605 3.0921-2.869987 5.80375 6.252896-3.09209 2.869987-5.80375-6.252896zm-17.653 32.842695 3.11499-2.89125 5.78249 6.22999-3.11499 2.89125zm25.85904-24.001604 3.09209-2.869987 5.78249 6.229991-3.09209 2.869987zm-17.65301 32.842694 3.115-2.89125 5.78249 6.22999-3.115 2.89125zm25.85905-24.0016 3.09209-2.86999 5.78249 6.23-3.09209 2.86999z" filter="url(#e)"/><path d="m-59.234073 21.163294-22.4954 18.291973 81.17639535 87.011803 20.67639565-20.87408z" fill="url(#f)" filter="url(#g)"/><path d="m-87.276434 42.653738 83.314646 89.762262 31.127052-28.8912-83.314646-89.762261zm3.225326 1.269998 3.114996-2.891245 5.782491 6.229991-3.114996 2.891246zm25.859045-24.001591 3.092091-2.869987 5.782491 6.229991-3.092091 2.869987zm-20.293796 21.223737 19.835193-18.410433 24.171665 26.04228-19.835193 18.410433zm2.640787 11.618945 3.114995-2.891246 5.782492 6.229991-3.114996 2.891246zm25.859044-24.001592 3.092092-2.869987 5.782491 6.229992-3.092091 2.869986zm-17.653008 32.842682 3.114995-2.891245 5.782492 6.229991-3.114996 2.891246zm25.859044-24.001591 3.092091-2.869987 5.782492 6.229991-3.092091 2.869987zm-17.653009 32.842682 3.114996-2.891246 5.782492 6.229992-3.114996 2.891245zm25.859045-24.001592 3.092091-2.869986 5.782492 6.229991-3.092091 2.869986zm-18.295434 23.376749 19.835193-18.410432 24.171662 26.042276-19.835193 18.410433zm.642423 9.465931 3.114995-2.891246 5.782492 6.229991-3.114996 2.891246zm25.859044-24.001592 3.092091-2.869987 5.782492 6.229991-3.092091 2.869987zm-17.653009 32.842682 3.114996-2.891246 5.782492 6.229992-3.114996 2.891245zm25.859045-24.001592 3.092091-2.869986 5.782492 6.229991-3.092091 2.869987zm-17.653009 32.842683 3.114996-2.891246 5.782491 6.229989-3.114995 2.89125zm25.859045-24.001592 3.092091-2.869987 5.782492 6.229992-3.092092 2.869986zm-16.63722 25.163291 19.835193-18.410433 24.171666 26.042277-19.835193 18.41044zm-1.015789 7.679394 3.114996-2.89125 5.803751 6.2529-3.114996 2.89124zm25.859045-24.001594 3.092091-2.869987 5.803751 6.252896-3.092091 2.869987zm-17.653009 32.842684 3.114996-2.89125 5.782492 6.22999-3.114996 2.89125zm25.859045-24.001593 3.092091-2.869987 5.782492 6.229991-3.092091 2.869987zm-17.653009 32.842683 3.114996-2.89125 5.782492 6.22999-3.114996 2.89125zm25.859045-24.001593 3.092091-2.869986 5.782492 6.229989-3.092091 2.86999z"/><path d="m-34.119508 46.844355c4.387932 5.377014.126815 5.87666-2.057026 8.615208 1.174917 3.975986 1.989034 9.501844 1.989034 15.540437 0 8.51714-2.222802 16.230295-5.818649 21.81432l36.037399 39.59193 31.125-28.875-56.863651-60.442123z" fill="url(#h)" filter="url(#i)" opacity=".982533"/><path d="m-86.162951 42.613438 15.733126 17.324116 30.935922-27.046834-16.882175-17.942835z" fill="url(#j)" filter="url(#l)"/></g><path d="m-14.67 75.028h17.438v28.125h-17.438z" filter="url(#m)" opacity=".524017" transform="matrix(.86858439 -.49554127 .49554127 .86858439 18.499018 -21.286559)"/><path d="m12.613 67.567h17.438v28.125h-17.438z" fill="url(#n)" transform="matrix(.86858439 -.49554127 .49554127 .86858439 0 0)"/><g filter="url(#o)" opacity=".414847" stroke-width=".220679" transform="translate(59.687196 1.999997)"><path d="m28.2528 50.315962c-11.773612 0-21.338603 17.053326-21.338603 38.117655 0 21.064323 9.564991 38.156683 21.338603 38.156683 11.77361 0 21.30176-17.09236 21.30176-38.156683 0-21.064329-9.52815-38.117655-21.30176-38.117655z" filter="url(#o)"/><path d="m32.2528 50.315962c-11.77361 0-21.3386 17.053326-21.3386 38.117658 0 21.06432 9.56499 38.15668 21.3386 38.15668s21.30176-17.09236 21.30176-38.15668c0-21.064332-9.52815-38.117658-21.30176-38.117658z" filter="url(#o)"/></g><g filter="url(#o)" opacity=".414847" stroke-width=".220679" transform="translate(39.957928 1.624997)"><path d="m105.27052 88.221825c0 10.544155-5.18403 19.091885-11.57887 19.091885-6.394835 0-11.578873-8.54773-11.578873-19.091885 0-10.544156 5.184038-19.091883 11.578873-19.091883 6.39484 0 11.57887 8.547727 11.57887 19.091883z" filter="url(#o)" transform="matrix(.86237259 0 0 1.1062817 -54.943161 -9.851241)"/><path d="m105.27052 88.221825c0 10.544155-5.18403 19.091885-11.57887 19.091885-6.394835 0-11.578873-8.54773-11.578873-19.091885 0-10.544156 5.184038-19.091883 11.578873-19.091883 6.39484 0 11.57887 8.547727 11.57887 19.091883z" filter="url(#o)" transform="matrix(.91329918 0 0 1.1427834 -57.017674 -12.696239)"/></g><path d="m105.27052 88.221825c0 10.544155-5.18403 19.091885-11.57887 19.091885-6.394835 0-11.578873-8.54773-11.578873-19.091885 0-10.544156 5.184038-19.091883 11.578873-19.091883 6.39484 0 11.57887 8.547727 11.57887 19.091883z" filter="url(#o)" opacity=".414847" transform="matrix(.86237259 0 0 .86200122 -21.192447 13.624959)"/><path d="m105.27052 88.221825c0 10.544155-5.18403 19.091885-11.57887 19.091885-6.394835 0-11.578873-8.54773-11.578873-19.091885 0-10.544156 5.184038-19.091883 11.578873-19.091883 6.39484 0 11.57887 8.547727 11.57887 19.091883z" fill="url(#p)" transform="matrix(.86237259 0 0 .86200122 -18.943161 12.396511)"/><path d="m105.27052 88.221825c0 10.544155-5.18403 19.091885-11.57887 19.091885-6.394835 0-11.578873-8.54773-11.578873-19.091885 0-10.544156 5.184038-19.091883 11.578873-19.091883 6.39484 0 11.57887 8.547727 11.57887 19.091883z" filter="url(#q)" opacity=".532751" transform="matrix(.86237259 0 0 1.1062817 -14.943161 -9.851244)"/><path d="m105.27052 88.221825c0 10.544155-5.18403 19.091885-11.57887 19.091885-6.394835 0-11.578873-8.54773-11.578873-19.091885 0-10.544156 5.184038-19.091883 11.578873-19.091883 6.39484 0 11.57887 8.547727 11.57887 19.091883z" fill="url(#r)" transform="matrix(.86237259 0 0 1.1062817 -14.943161 -9.851244)"/><path d="m105.27052 88.221825c0 10.544155-5.18403 19.091885-11.57887 19.091885-6.394835 0-11.578873-8.54773-11.578873-19.091885 0-10.544156 5.184038-19.091883 11.578873-19.091883 6.39484 0 11.57887 8.547727 11.57887 19.091883z" filter="url(#s)" opacity=".637555" transform="matrix(.91329918 0 0 1.1427834 -17.017674 -12.696242)"/><path d="m105.27052 88.221825c0 10.544155-5.18403 19.091885-11.57887 19.091885-6.394835 0-11.578873-8.54773-11.578873-19.091885 0-10.544156 5.184038-19.091883 11.578873-19.091883 6.39484 0 11.57887 8.547727 11.57887 19.091883z" fill="url(#t)" transform="matrix(.91329918 0 0 1.1427834 -17.017674 -12.696242)"/><path d="m105.27052 88.221825c0 10.544155-5.18403 19.091885-11.57887 19.091885-6.394835 0-11.578873-8.54773-11.578873-19.091885 0-10.544156 5.184038-19.091883 11.578873-19.091883 6.39484 0 11.57887 8.547727 11.57887 19.091883z" fill="url(#r)" transform="matrix(.86237259 0 0 1.1062817 -9.656605 -9.851244)"/><g opacity=".572052" transform="translate(0 -.000003)"><path d="m63.852316 94.715102s.300331 7.302348 6.00809 12.515858l-1.963039-12.563448z" filter="url(#u)"/><path d="m70.014586 69.228262-1.558051 13.649118-4.604219.0119c1.795815-13.003621 6.16227-13.661018 6.16227-13.661018z" filter="url(#v)"/></g><g transform="translate(0 -.000003)"><path d="m63.852316 94.715102s.300331 7.302348 6.00809 12.515858l-1.963039-12.563448z" fill="url(#w)" filter="url(#u)"/><path d="m70.014586 69.228262-1.558051 13.649118-4.604219.0119c1.795815-13.003621 6.16227-13.661018 6.16227-13.661018z" fill="url(#y)" filter="url(#v)"/></g><rect filter="url(#z)" height="11.754" ry="1.149" width="5.187" x="63.013" y="82.913"/><rect fill="url(#A)" height="11.754" ry="1.149" width="5.187" x="63.013" y="82.913"/><path d="m88.252798 50.315959c-11.77361 0-21.338601 17.053326-21.338601 38.117655 0 21.064326 9.564991 38.156686 21.338601 38.156686 11.773612 0 21.301762-17.09236 21.301762-38.156686 0-21.064329-9.52815-38.117655-21.301762-38.117655z" fill="url(#B)"/><path d="m92.252798 50.315959c-11.77361 0-21.3386 17.053326-21.3386 38.117658 0 21.064323 9.56499 38.156683 21.3386 38.156683 11.773612 0 21.301762-17.09236 21.301762-38.156683 0-21.064332-9.52815-38.117658-21.301762-38.117658z" fill="url(#C)" stroke="#999" stroke-width=".25"/><path d="m104.65181 87.956657c0 14.351763-7.34076 25.986173-16.396042 25.986173s-16.396038-11.63441-16.396038-25.986173c0-14.351767 7.340756-25.986173 16.396038-25.986173s16.396042 11.634406 16.396042 25.986173z" fill="url(#D)" filter="url(#E)" stroke="#000" stroke-width=".75" transform="matrix(.96373088 0 0 1.0969387 7.065997 -8.040278)"/><path d="m105.27052 88.221825c0 10.544155-5.18403 19.091885-11.57887 19.091885-6.394835 0-11.578873-8.54773-11.578873-19.091885 0-10.544156 5.184038-19.091883 11.578873-19.091883 6.39484 0 11.57887 8.547727 11.57887 19.091883z" filter="url(#F)" transform="matrix(.86259542 0 0 1 5.537429 .088385)"/><path d="m105.27052 88.221825c0 10.544155-5.18403 19.091885-11.57887 19.091885-6.394835 0-11.578873-8.54773-11.578873-19.091885 0-10.544156 5.184038-19.091883 11.578873-19.091883 6.39484 0 11.57887 8.547727 11.57887 19.091883z" fill="url(#G)" transform="matrix(.86259542 0 0 1 5.537429 .088385)"/><path d="m93.780034 88.089241c0 6.370428-1.26633 11.534679-2.828427 11.534679s-2.828427-5.164251-2.828427-11.534679 1.26633-11.534679 2.828427-11.534679 2.828427 5.164251 2.828427 11.534679z" fill="url(#H)" filter="url(#I)" opacity=".5" transform="matrix(1.609375 0 0 1.0038314 -56.970433 -.381704)"/><path d="m92.764128 55.437497c-9.75274 0-17.686 14.76881-17.686 33 0 18.231203 7.93326 33.031253 17.686 33.031253 9.752692 0 17.657712-14.80005 17.657712-33.031253 0-18.23119-7.90502-33-17.657712-33zm0 2.46875c9.025602 0 16.329842 13.659271 16.329842 30.53125 0 16.871983-7.30424 30.562503-16.329842 30.562503-9.02564 0-16.35814-13.69052-16.35814-30.562503 0-16.871979 7.3325-30.53125 16.35814-30.53125z" filter="url(#J)" stroke="#000" stroke-width=".25"/><path d="m92.764128 55.437497c-9.75274 0-17.686 14.76881-17.686 33 0 18.231203 7.93326 33.031253 17.686 33.031253 9.752692 0 17.657712-14.80005 17.657712-33.031253 0-18.23119-7.90502-33-17.657712-33zm0 2.46875c9.025602 0 16.329842 13.659271 16.329842 30.53125 0 16.871983-7.30424 30.562503-16.329842 30.562503-9.02564 0-16.35814-13.69052-16.35814-30.562503 0-16.871979 7.3325-30.53125 16.35814-30.53125z" fill="url(#K)"/><path d="m92.748488 57.906247c-9.01686 0-16.34224 13.659271-16.34224 30.53125 0 16.871983 7.32538 30.562503 16.34224 30.562503 9.016862 0 16.314012-13.69052 16.314012-30.562503 0-16.871979-7.29715-30.53125-16.314012-30.53125zm0 2.8125c8.178712 0 14.818092 12.41508 14.818092 27.71875 0 15.303673-6.63938 27.718753-14.818092 27.718753-8.17871 0-14.81809-12.41508-14.81809-27.718753 0-15.30367 6.63938-27.71875 14.81809-27.71875z" fill="#949494"/></g></svg>